<svg width="218" height="57" viewBox="0 0 218 57" fill="none" xmlns="http://www.w3.org/2000/svg">
<path d="M64.8755 39.71C60.3726 39.71 56.7286 36.1095 56.7286 30.863C56.7286 25.385 59.852 21.4758 65.2659 21.4758C69.5866 21.4758 73.4128 24.7421 73.4128 30.3229C73.4128 35.6723 70.3154 39.71 64.8755 39.71ZM64.9275 24.5877C62.2987 24.5877 60.3986 26.7224 60.3986 30.3229C60.3986 34.5664 61.9603 36.6496 65.2139 36.6496C67.9729 36.6496 69.7428 34.695 69.7428 30.8115C69.7428 26.6709 67.9468 24.5672 64.9275 24.5672V24.5877Z" fill="white"/>
<path d="M86.8173 29.9885C86.3488 29.1913 85.0213 28.5483 83.0172 28.5483C82.019 28.544 81.059 28.9269 80.3435 29.6146C79.628 30.3023 79.2142 31.24 79.191 32.226C79.191 34.7464 80.7006 36.4695 83.0692 36.4695C85.0734 36.4695 86.2707 35.8266 86.7652 35.1836H86.8954V36.7781C86.8954 38.4498 85.2556 39.6586 82.7309 39.6586C81.7988 39.6729 80.873 39.505 80.0068 39.1646C79.1406 38.8242 78.351 38.318 77.6834 37.6751C77.0158 37.0322 76.4834 36.2653 76.1168 35.4184C75.7502 34.5716 75.5565 33.6614 75.547 32.7404C75.547 28.7798 78.3321 25.385 83.1213 25.385C85.3597 25.385 86.9474 26.7223 86.9474 28.3683V29.9885H86.8173Z" fill="white"/>
<path d="M95.3546 39.6843C92.5695 39.6843 89.342 38.8099 89.342 35.0036V25.5136H89.9407C91.9709 25.5136 92.8298 26.3623 92.8298 27.9825V30.4258C93.6682 29.9633 94.6037 29.6992 95.5628 29.6542C98.9205 29.6542 101.185 31.8403 101.185 34.7207C101.185 37.6011 98.9985 39.6843 95.3546 39.6843ZM95.0162 32.2826C94.2444 32.3329 93.4955 32.562 92.8298 32.9513V35.0859C92.8298 36.4232 94.2354 36.9376 95.3806 36.9376C96.7601 36.9376 97.6451 36.1146 97.6451 34.623C97.6451 33.1313 96.4946 32.2826 95.0162 32.2826Z" fill="white"/>
<path d="M118.962 39.4014C117.687 39.4014 116.854 38.7327 116.854 37.344C116.854 35.9552 116.62 32.046 116.385 29.9114C116.177 30.4258 115.917 31.0944 115.631 31.9174C115.136 33.4091 113.809 37.524 112.82 39.3757H112.065C110.894 39.3757 110.061 38.4756 109.072 35.5951C108.629 34.2835 107.796 31.3773 107.119 29.86C106.781 32.7404 106.521 36.9067 106.521 39.3757H105.193C104.918 39.3843 104.643 39.3369 104.386 39.2365C104.13 39.1362 103.897 38.9849 103.702 38.7921C103.507 38.5994 103.353 38.3691 103.252 38.1156C103.15 37.8621 103.102 37.5907 103.111 37.3182C103.229 33.3404 103.708 29.3811 104.543 25.4879H105.818C109.176 25.4879 110.191 29.8342 111.076 32.3803C111.362 33.1776 111.492 34.0006 111.831 34.7721C112.481 32.869 113.34 30.4258 114.043 28.6769C114.493 27.506 115.155 26.4255 115.995 25.4879H116.724C118.572 25.4879 119.405 26.5938 119.639 28.4455C120.003 31.4545 120.446 35.698 120.498 39.3757L118.962 39.4014Z" fill="white"/>
<path d="M130.207 39.5814C125.469 39.5814 123.309 37.4211 123.309 33.1004V25.5136H123.908C125.938 25.5136 126.797 26.3623 126.797 27.9825V33.229C126.797 35.6465 127.916 36.6496 130.024 36.6496C130.744 36.6483 131.46 36.562 132.159 36.3924V25.5136H132.757C134.788 25.5136 135.646 26.3623 135.646 27.9825V38.7842C133.88 39.2997 132.049 39.5681 130.207 39.5814Z" fill="white"/>
<path d="M150.535 39.4014C148.869 39.4014 147.906 38.5527 147.906 36.9325V33.5119H142.518V39.4014H141.659C139.993 39.4014 139.03 38.5527 139.03 36.9325V25.5136H139.629C141.659 25.5136 142.518 26.3623 142.518 27.9825V30.8372H147.906V25.5136H148.505C150.535 25.5136 151.394 26.3623 151.394 27.9825V39.4014H150.535Z" fill="white"/>
<path d="M160.764 39.71C156.547 39.71 154.127 36.3924 154.127 32.7147C154.127 28.5483 156.547 25.205 161.076 25.205C165.293 25.205 167.713 28.5483 167.713 32.226C167.713 36.3975 165.293 39.71 160.764 39.71ZM160.764 28.2912C158.76 28.2912 157.745 29.9371 157.745 32.226C157.745 34.9779 158.76 36.6239 161.076 36.6239C163.106 36.6239 164.095 34.9779 164.095 32.7147C164.095 29.9371 163.054 28.2912 160.764 28.2912Z" fill="white"/>
<path d="M184.606 31.8917C185.575 33.3607 186.636 34.7693 187.781 36.1095C188.926 37.344 189.395 37.5754 190.306 37.7812C190.124 38.8613 189.551 39.5043 188.067 39.5043C187.67 39.509 187.276 39.434 186.909 39.2837C186.542 39.1333 186.21 38.9109 185.933 38.6299C184.215 36.8039 182.836 34.695 181.352 32.689V39.3757H180.493C178.827 39.3757 177.864 38.527 177.864 36.9067V32.6632C176.355 34.6693 175.001 36.7781 173.283 38.6041C173 38.8838 172.663 39.1051 172.292 39.2552C171.921 39.4053 171.524 39.4812 171.123 39.4786C169.639 39.4786 169.067 38.8356 168.885 37.7554C169.796 37.5497 170.264 37.3182 171.409 36.0838C172.563 34.75 173.624 33.3409 174.585 31.866C172.805 29.6774 170.891 27.5988 168.853 25.6422V25.5136H171.3C172.497 25.5136 173.07 25.7965 173.486 26.2337C175.068 27.9118 176.538 29.6902 177.885 31.5574V25.5136H178.484C180.514 25.5136 181.373 26.3623 181.373 27.9825V31.5831C182.712 29.7167 184.173 27.9383 185.746 26.2594C186.188 25.8222 186.761 25.5393 187.932 25.5393H190.405V25.6679C188.349 27.6278 186.413 29.706 184.606 31.8917Z" fill="white"/>
<path d="M202.851 39.4837C201.994 39.4615 201.177 39.1218 200.561 38.5321C198.803 36.6666 197.168 34.6908 195.668 32.6169V39.4065H194.548C192.935 39.4065 192.154 38.5836 192.154 36.9633V25.5136H193.273C194.965 25.5136 195.668 26.4652 195.668 27.8025V31.4545C196.963 29.6655 198.399 27.98 199.962 26.4137C200.795 25.6422 201.628 25.5136 202.747 25.5136H204.772V25.6422C202.742 27.6313 200.83 29.7352 199.046 31.9431C200.165 33.3062 201.259 34.7207 202.508 35.9809C203.757 37.2411 204.356 37.524 205.215 37.7812C204.856 38.887 204.283 39.4837 202.851 39.4837Z" fill="white"/>
<path d="M212.69 39.6329H211.987C208.656 39.6329 206.365 37.7812 206.365 35.2351C206.365 32.7661 208.187 30.8887 213.341 30.8887H214.564V30.7087C214.564 28.7541 213.627 28.1368 211.545 28.1368C209.02 28.1368 207.615 29.0884 207.094 29.7314H206.964V28.6512C206.964 27.1081 208.37 25.2564 212.066 25.2564C215.189 25.2564 218 26.6966 218 31.4802V34.6693C218 37.6011 215.814 39.6329 212.69 39.6329ZM214.59 33.3576H213.341C210.686 33.3576 209.931 33.9749 209.931 35.1065C209.931 36.2381 210.816 36.8296 212.352 36.8296C213.888 36.8296 214.59 36.1095 214.59 34.695V33.3576Z" fill="white"/>
<path d="M65.994 7.21264V14.5874H65.246V8.68758L62.3488 13.6497H61.9801L59.0829 8.71919V14.5874H58.3349V7.21264H58.9775L62.1803 12.6805L65.3514 7.21264H65.994Z" fill="white"/>
<path d="M70.1774 9.00364C70.9008 9.00364 71.4557 9.18625 71.842 9.55148C72.2282 9.90968 72.4214 10.4435 72.4214 11.1528V14.5874H71.705V13.7235C71.5364 14.0114 71.2871 14.2362 70.957 14.3977C70.6339 14.5593 70.2476 14.64 69.7981 14.64C69.18 14.64 68.6884 14.4925 68.3232 14.1976C67.9579 13.9026 67.7753 13.5128 67.7753 13.0281C67.7753 12.5576 67.9439 12.1783 68.281 11.8903C68.6252 11.6024 69.1695 11.4584 69.914 11.4584H71.6734V11.1212C71.6734 10.6436 71.5399 10.2819 71.2731 10.0361C71.0062 9.78326 70.6163 9.65683 70.1036 9.65683C69.7525 9.65683 69.4153 9.71653 69.0922 9.83593C68.7692 9.94831 68.4917 10.1063 68.2599 10.31L67.9228 9.75165C68.2038 9.51285 68.5409 9.33024 68.9342 9.20381C69.3275 9.07037 69.7419 9.00364 70.1774 9.00364ZM69.914 14.0501C70.3354 14.0501 70.6971 13.9552 70.9991 13.7656C71.3011 13.5689 71.5259 13.288 71.6734 12.9228V12.0167H69.9351C68.9869 12.0167 68.5128 12.3468 68.5128 13.0071C68.5128 13.3301 68.6357 13.5865 68.8815 13.7761C69.1274 13.9588 69.4715 14.0501 69.914 14.0501Z" fill="white"/>
<path d="M79.5306 6.77016V14.5874H78.8142V13.4917C78.5894 13.8639 78.2909 14.1484 77.9187 14.345C77.5535 14.5417 77.1391 14.64 76.6755 14.64C76.1558 14.64 75.6852 14.5206 75.2638 14.2818C74.8424 14.043 74.5123 13.7094 74.2735 13.281C74.0347 12.8525 73.9153 12.3644 73.9153 11.8166C73.9153 11.2687 74.0347 10.7806 74.2735 10.3522C74.5123 9.92373 74.8424 9.59362 75.2638 9.36184C75.6852 9.12304 76.1558 9.00364 76.6755 9.00364C77.125 9.00364 77.5289 9.09846 77.8871 9.2881C78.2523 9.47071 78.5508 9.74111 78.7826 10.0993V6.77016H79.5306ZM76.7387 13.9763C77.125 13.9763 77.4727 13.8885 77.7817 13.7129C78.0978 13.5303 78.3436 13.274 78.5192 12.9439C78.7018 12.6137 78.7931 12.238 78.7931 11.8166C78.7931 11.3952 78.7018 11.0194 78.5192 10.6893C78.3436 10.3592 78.0978 10.1063 77.7817 9.93075C77.4727 9.74814 77.125 9.65683 76.7387 9.65683C76.3454 9.65683 75.9907 9.74814 75.6747 9.93075C75.3656 10.1063 75.1198 10.3592 74.9372 10.6893C74.7616 11.0194 74.6738 11.3952 74.6738 11.8166C74.6738 12.238 74.7616 12.6137 74.9372 12.9439C75.1198 13.274 75.3656 13.5303 75.6747 13.7129C75.9907 13.8885 76.3454 13.9763 76.7387 13.9763Z" fill="white"/>
<path d="M86.439 12.0483H81.8034C81.8456 12.6243 82.0668 13.0913 82.4672 13.4495C82.8675 13.8007 83.3732 13.9763 83.9842 13.9763C84.3284 13.9763 84.6445 13.9166 84.9324 13.7972C85.2204 13.6708 85.4697 13.4882 85.6804 13.2494L86.1018 13.734C85.856 14.029 85.547 14.2537 85.1747 14.4083C84.8095 14.5628 84.4057 14.64 83.9632 14.64C83.3943 14.64 82.8886 14.5206 82.4461 14.2818C82.0106 14.036 81.67 13.6989 81.4242 13.2704C81.1783 12.842 81.0554 12.3574 81.0554 11.8166C81.0554 11.2758 81.1713 10.7911 81.4031 10.3627C81.6419 9.93426 81.965 9.60064 82.3723 9.36184C82.7867 9.12304 83.2503 9.00364 83.763 9.00364C84.2757 9.00364 84.7358 9.12304 85.1431 9.36184C85.5505 9.60064 85.8701 9.93426 86.1018 10.3627C86.3336 10.7841 86.4495 11.2687 86.4495 11.8166L86.439 12.0483ZM83.763 9.6463C83.2292 9.6463 82.7797 9.81837 82.4145 10.1625C82.0563 10.4997 81.8526 10.9421 81.8034 11.49H85.7331C85.6839 10.9421 85.4767 10.4997 85.1115 10.1625C84.7533 9.81837 84.3038 9.6463 83.763 9.6463Z" fill="white"/>
<path d="M93.5844 9.00364C94.1041 9.00364 94.5747 9.12304 94.9961 9.36184C95.4175 9.59362 95.7476 9.92373 95.9864 10.3522C96.2252 10.7806 96.3446 11.2687 96.3446 11.8166C96.3446 12.3644 96.2252 12.8525 95.9864 13.281C95.7476 13.7094 95.4175 14.043 94.9961 14.2818C94.5747 14.5206 94.1041 14.64 93.5844 14.64C93.1208 14.64 92.7029 14.5417 92.3307 14.345C91.9655 14.1484 91.6705 13.8639 91.4457 13.4917V14.5874H90.7293V6.77016H91.4773V10.0993C91.7091 9.74111 92.0041 9.47071 92.3623 9.2881C92.7275 9.09846 93.1349 9.00364 93.5844 9.00364ZM93.5317 13.9763C93.918 13.9763 94.2692 13.8885 94.5852 13.7129C94.9013 13.5303 95.1471 13.274 95.3227 12.9439C95.5053 12.6137 95.5966 12.238 95.5966 11.8166C95.5966 11.3952 95.5053 11.0194 95.3227 10.6893C95.1471 10.3592 94.9013 10.1063 94.5852 9.93075C94.2692 9.74814 93.918 9.65683 93.5317 9.65683C93.1384 9.65683 92.7837 9.74814 92.4676 9.93075C92.1586 10.1063 91.9128 10.3592 91.7302 10.6893C91.5546 11.0194 91.4668 11.3952 91.4668 11.8166C91.4668 12.238 91.5546 12.6137 91.7302 12.9439C91.9128 13.274 92.1586 13.5303 92.4676 13.7129C92.7837 13.8885 93.1384 13.9763 93.5317 13.9763Z" fill="white"/>
<path d="M102.372 9.04578L99.601 15.2511C99.3762 15.7708 99.1163 16.1396 98.8213 16.3573C98.5264 16.575 98.1717 16.6839 97.7573 16.6839C97.4904 16.6839 97.241 16.6417 97.0093 16.5575C96.7775 16.4732 96.5773 16.3468 96.4088 16.1782L96.7564 15.6198C97.0374 15.9008 97.3745 16.0412 97.7678 16.0412C98.0207 16.0412 98.2349 15.971 98.4105 15.8305C98.5931 15.6901 98.7616 15.4513 98.9162 15.1141L99.1585 14.5768L96.6827 9.04578H97.4623L99.5483 13.7551L101.634 9.04578H102.372Z" fill="white"/>
<path fill-rule="evenodd" clip-rule="evenodd" d="M43.4983 24.2959C43.6087 24.2161 43.7412 24.173 43.8772 24.1728C44.0131 24.1725 44.1457 24.2151 44.2565 24.2945C44.3672 24.374 44.4506 24.4863 44.4948 24.6158C44.5391 24.7453 44.542 24.8855 44.5033 25.0167C44.4646 25.148 44.3861 25.2638 44.2788 25.3479C44.1715 25.432 44.0408 25.4802 43.9049 25.4858C43.7691 25.4914 43.6349 25.4541 43.5212 25.379C43.4074 25.304 43.3198 25.195 43.2706 25.0674C43.203 24.9339 43.189 24.7794 43.2314 24.6358C43.2737 24.4922 43.3693 24.3705 43.4983 24.2959ZM42.3961 20.9703C42.5116 20.7548 42.6912 20.5812 42.9096 20.4738C43.1281 20.3663 43.3745 20.3304 43.6142 20.3712C43.8539 20.4119 44.0749 20.5272 44.2463 20.7009C44.4177 20.8746 44.5308 21.098 44.5697 21.3397C44.6087 21.5814 44.5715 21.8294 44.4635 22.0488C44.3555 22.2682 44.182 22.448 43.9674 22.563C43.7528 22.6781 43.5079 22.7226 43.2669 22.6903C43.0259 22.658 42.801 22.5505 42.6238 22.3829C42.414 22.2212 42.2736 21.9848 42.2313 21.7222C42.189 21.4595 42.2479 21.1906 42.3961 20.9703ZM40.585 21.3039C40.1814 21.2674 39.8812 20.9807 39.9123 20.668C39.9529 20.4995 40.0575 20.3538 40.2036 20.2622C40.3497 20.1706 40.5256 20.1403 40.6936 20.178C41.0921 20.2145 41.3974 20.5012 41.3663 20.8139C41.3245 20.9817 41.2197 21.1265 41.0739 21.218C40.9282 21.3094 40.7529 21.3402 40.585 21.3039ZM44.8902 27.3766C44.9502 27.3415 45.0187 27.3241 45.088 27.3261C45.1573 27.3282 45.2246 27.3496 45.2824 27.3881C45.3403 27.4266 45.3863 27.4806 45.4153 27.544C45.4444 27.6074 45.4553 27.6777 45.4468 27.747C45.4384 27.8163 45.4109 27.8819 45.3675 27.9363C45.3241 27.9908 45.2665 28.0319 45.2011 28.0552C45.1358 28.0784 45.0653 28.0828 44.9975 28.0679C44.9298 28.053 44.8676 28.0194 44.8178 27.9708C44.7515 27.8814 44.722 27.7697 44.7355 27.659C44.749 27.5483 44.8044 27.4471 44.8902 27.3766ZM45.5215 23.4567C45.6567 23.3749 45.814 23.3378 45.9712 23.3505C46.1284 23.3633 46.2777 23.4253 46.3981 23.5278C46.5186 23.6303 46.6042 23.7683 46.6429 23.9223C46.6816 24.0763 46.6715 24.2387 46.614 24.3866C46.5565 24.5345 46.4545 24.6606 46.3222 24.7472C46.19 24.8338 46.0342 24.8765 45.8766 24.8694C45.7191 24.8623 45.5677 24.8056 45.4437 24.7075C45.3197 24.6093 45.2293 24.4745 45.1852 24.322C45.1199 24.1619 45.1185 23.9826 45.1811 23.8214C45.2438 23.6602 45.3657 23.5296 45.5215 23.4567ZM32.7041 8.26723C33.5837 9.30974 33.9822 11.0768 33.3198 13.8916C33.1905 13.141 32.7662 10.7276 32.2435 9.72154L32.7041 8.27765V8.26723ZM30.4169 7.15173C28.2798 4.91032 24.8232 3.33612 19.6589 4.86862C19.6589 4.86862 22.9293 2.60636 26.8102 3.30485C28.6102 3.67334 30.2252 4.66564 31.3742 6.10922L30.4169 7.15173ZM26.4894 18.9791C28.7352 18.6768 31.664 15.9506 31.664 15.9506C31.6122 20.8817 27.3949 21.1267 26.4894 18.9791ZM26.3911 54.8208C26.2859 54.7883 26.1976 54.7154 26.1454 54.6178C26.0931 54.5203 26.081 54.406 26.1116 54.2996C26.1075 54.2429 26.1161 54.186 26.137 54.1331C26.1579 54.0803 26.1903 54.033 26.232 53.9946C26.2737 53.9563 26.3235 53.928 26.3776 53.9119C26.4317 53.8958 26.4888 53.8923 26.5444 53.9016C26.6001 53.911 26.6529 53.9329 26.6989 53.9659C26.745 53.9988 26.7829 54.0418 26.81 54.0917C26.8371 54.1415 26.8526 54.197 26.8553 54.2537C26.858 54.3105 26.8479 54.3672 26.8257 54.4194C26.7843 54.6801 26.5877 54.8625 26.3911 54.826V54.8208ZM24.2074 51.2502C24.1177 51.3114 24.0128 51.346 23.9046 51.3501C23.7963 51.3543 23.6891 51.3278 23.5951 51.2737C23.501 51.2196 23.4239 51.1401 23.3725 51.0441C23.321 50.948 23.2973 50.8394 23.304 50.7306C23.3108 50.6217 23.3476 50.5168 23.4105 50.428C23.4733 50.3391 23.5596 50.2698 23.6596 50.2278C23.7596 50.1859 23.8692 50.173 23.9761 50.1906C24.083 50.2082 24.1828 50.2557 24.2643 50.3276C24.3774 50.4579 24.4349 50.6279 24.4243 50.8007C24.4136 50.9735 24.3357 51.135 24.2074 51.2502ZM24.8594 53.4343C24.7578 53.4355 24.6584 53.4047 24.5751 53.3461C24.4918 53.2876 24.4288 53.2042 24.3949 53.1077C24.361 53.0113 24.358 52.9066 24.3862 52.8083C24.4144 52.71 24.4725 52.623 24.5522 52.5596C24.632 52.4963 24.7294 52.4596 24.8309 52.4549C24.9323 52.4501 25.0327 52.4775 25.118 52.5331C25.2032 52.5888 25.269 52.6699 25.3062 52.7652C25.3433 52.8604 25.3499 52.965 25.3251 53.0642C25.3109 53.1749 25.2541 53.2757 25.1671 53.3448C25.0801 53.414 24.9696 53.4461 24.8594 53.4343ZM22.8258 48.8524C22.5832 48.84 22.3505 48.7514 22.1603 48.5991C21.9702 48.4468 21.8321 48.2384 21.7654 48.0031C21.6987 47.7678 21.7067 47.5174 21.7884 47.2869C21.87 47.0565 22.0211 46.8575 22.2207 46.7179C22.4202 46.5783 22.658 46.505 22.9009 46.5084C23.1438 46.5117 23.3796 46.5916 23.5752 46.7366C23.7708 46.8817 23.9165 47.0848 23.9918 47.3175C24.0671 47.5501 24.0683 47.8007 23.9952 48.034C23.9413 48.2953 23.79 48.5258 23.5724 48.678C23.3549 48.8303 23.0876 48.8927 22.8258 48.8524ZM22.8568 44.4947C22.9093 44.3982 22.9875 44.3185 23.0827 44.2645C23.1778 44.2105 23.2861 44.1845 23.3952 44.1893C23.5043 44.1941 23.6099 44.2296 23.7 44.2917C23.7901 44.3539 23.8611 44.4402 23.905 44.5409C23.9489 44.6417 23.9639 44.7528 23.9484 44.8617C23.9328 44.9705 23.8873 45.0729 23.817 45.157C23.7467 45.2412 23.6543 45.3038 23.5505 45.3379C23.4466 45.3719 23.3354 45.3759 23.2294 45.3496C23.0703 45.2823 22.943 45.1562 22.8736 44.9971C22.8043 44.838 22.7983 44.6581 22.8568 44.4947ZM18.1686 15.7316C18.1686 15.7316 21.0716 18.6507 23.3174 18.953C22.4118 21.1006 18.4998 21.2778 18.1686 15.7316ZM34.1581 28.8517C34.2988 28.8896 34.4262 28.9663 34.5258 29.0733C34.6255 29.1802 34.6936 29.313 34.7223 29.4568C34.751 29.6006 34.7393 29.7496 34.6884 29.8871C34.6376 30.0245 34.5496 30.1449 34.4344 30.2346C34.3193 30.3244 34.1815 30.38 34.0367 30.395C33.8918 30.4101 33.7457 30.3841 33.6147 30.32C33.4838 30.2559 33.3732 30.1562 33.2955 30.0321C33.2178 29.9081 33.176 29.7646 33.175 29.618C33.2084 29.3869 33.3296 29.1778 33.513 29.0349C33.6964 28.892 33.9276 28.8263 34.1581 28.8517ZM35.3483 32.782C35.5213 32.7827 35.6897 32.8379 35.8299 32.94C35.9702 33.042 36.0751 33.1857 36.1301 33.3509C36.1851 33.5162 36.1873 33.6946 36.1365 33.8612C36.0856 34.0277 35.9843 34.1741 35.8466 34.2796C35.709 34.3852 35.542 34.4446 35.3691 34.4497C35.1961 34.4547 35.026 34.4051 34.8825 34.3077C34.7391 34.2103 34.6295 34.0701 34.5692 33.9068C34.5088 33.7435 34.5008 33.5652 34.5462 33.3971C34.5745 33.2097 34.674 33.0408 34.8236 32.926C34.9733 32.8112 35.1615 32.7596 35.3483 32.782ZM36.0934 30.452C36.2694 30.3979 36.4582 30.4044 36.6301 30.4704C36.802 30.5364 36.9472 30.6582 37.0427 30.8166C37.1382 30.975 37.1787 31.1609 37.1576 31.345C37.1366 31.5291 37.0553 31.7009 36.9265 31.8333C36.7506 31.8874 36.5617 31.8809 36.3899 31.8149C36.218 31.7489 36.0728 31.6271 35.9773 31.4687C35.8817 31.3103 35.8413 31.1244 35.8623 30.9403C35.8834 30.7562 35.9647 30.5844 36.0934 30.452ZM15.038 47.5336C14.9654 47.6049 14.8724 47.6516 14.7721 47.667C14.6718 47.6825 14.5692 47.6659 14.4788 47.6198C14.3883 47.5736 14.3144 47.5 14.2674 47.4095C14.2205 47.3189 14.2028 47.2158 14.2169 47.1146C14.231 47.0134 14.2762 46.9191 14.346 46.8451C14.4159 46.771 14.5071 46.7208 14.6067 46.7015C14.7063 46.6822 14.8094 46.6948 14.9016 46.7374C14.9938 46.7801 15.0704 46.8507 15.1208 46.9394C15.186 47.03 15.2137 47.1425 15.1983 47.2533C15.1829 47.3641 15.1254 47.4646 15.038 47.5336ZM13.9617 42.5191C13.9172 42.4165 13.9139 42.3006 13.9525 42.1956C13.9911 42.0906 14.0686 42.0048 14.1687 41.9562C14.2078 41.9127 14.2564 41.879 14.3107 41.8576C14.3649 41.8362 14.4233 41.8278 14.4813 41.8329C14.5393 41.838 14.5954 41.8566 14.6451 41.8871C14.6948 41.9177 14.7369 41.9594 14.7679 42.0091C14.799 42.0587 14.8182 42.1149 14.8241 42.1733C14.8301 42.2316 14.8225 42.2906 14.8021 42.3455C14.7816 42.4005 14.7488 42.4499 14.7063 42.4899C14.6637 42.53 14.6126 42.5596 14.5568 42.5765C14.4696 42.6466 14.3588 42.6799 14.2477 42.6692C14.1366 42.6585 14.0341 42.6047 13.9617 42.5191ZM13.6926 45.2401C13.5495 45.3791 13.3668 45.4695 13.1701 45.4987C12.9734 45.5278 12.7725 45.4941 12.5958 45.4024C12.419 45.3107 12.2752 45.1656 12.1844 44.9874C12.0937 44.8092 12.0606 44.6068 12.0899 44.4087C12.1191 44.2106 12.2092 44.0267 12.3474 43.8828C12.4857 43.7388 12.6652 43.6421 12.8608 43.6062C13.0564 43.5702 13.2583 43.5969 13.4381 43.6824C13.6179 43.7679 13.7666 43.9079 13.8634 44.0829C13.99 44.2602 14.0431 44.4803 14.0112 44.6964C13.9793 44.9125 13.865 45.1075 13.6926 45.2401ZM12.0574 42.2689C11.9047 42.3151 11.7414 42.3114 11.5909 42.2584C11.4404 42.2054 11.3104 42.1058 11.2195 41.9738C11.1286 41.8419 11.0815 41.6843 11.0849 41.5237C11.0884 41.3632 11.1421 41.2078 11.2385 41.0798C11.3349 40.9519 11.469 40.858 11.6217 40.8115C11.7743 40.765 11.9376 40.7684 12.0882 40.8211C12.2388 40.8738 12.369 40.9732 12.4601 41.105C12.5513 41.2368 12.5987 41.3942 12.5956 41.5548C12.6149 41.7277 12.567 41.9014 12.4618 42.0395C12.3566 42.1775 12.2024 42.2691 12.0316 42.295L12.0574 42.2689ZM13.7495 38.2813C13.8095 38.2463 13.878 38.2288 13.9473 38.2309C14.0166 38.2329 14.0839 38.2544 14.1417 38.2929C14.1996 38.3314 14.2456 38.3853 14.2747 38.4487C14.3037 38.5121 14.3146 38.5824 14.3062 38.6517C14.2977 38.721 14.2702 38.7866 14.2268 38.841C14.1834 38.8955 14.1258 38.9366 14.0604 38.9599C13.9951 38.9831 13.9246 38.9876 13.8568 38.9727C13.7891 38.9578 13.7269 38.9241 13.6771 38.8755C13.6108 38.7862 13.5813 38.6745 13.5948 38.5637C13.6083 38.453 13.6637 38.3518 13.7495 38.2813ZM7.26578 33.7359C7.21756 33.8182 7.14782 33.8855 7.06419 33.9306C6.98055 33.9756 6.88624 33.9966 6.79154 33.9914C6.69685 33.9861 6.60542 33.9547 6.52724 33.9006C6.44906 33.8465 6.38715 33.7718 6.34825 33.6847C6.30936 33.5975 6.29498 33.5013 6.3067 33.4065C6.31841 33.3117 6.35577 33.222 6.41468 33.1471C6.47359 33.0722 6.5518 33.0151 6.64075 32.982C6.72971 32.9488 6.82599 32.941 6.91908 32.9592C7.06602 33.0176 7.18451 33.1314 7.24928 33.2765C7.31405 33.4216 7.31997 33.5865 7.26578 33.7359ZM4.22312 34.2572C3.62804 34.3927 3.00709 33.8714 2.83633 33.1C2.66557 32.3285 3.00192 31.5883 3.59182 31.4528C4.18172 31.3173 4.80785 31.8385 4.97861 32.61C5.14937 33.3815 4.81302 34.1216 4.22312 34.2572ZM3.1882 29.0446C3.25714 28.9224 3.35873 28.8222 3.48142 28.7553C3.60412 28.6884 3.74298 28.6576 3.88221 28.6663C4.02145 28.675 4.15546 28.723 4.26899 28.8046C4.38252 28.8863 4.47102 28.9984 4.52442 29.1282C4.57781 29.258 4.59395 29.4004 4.571 29.539C4.54806 29.6776 4.48695 29.8069 4.39462 29.9123C4.3023 30.0176 4.18247 30.0947 4.04878 30.1349C3.91509 30.175 3.7729 30.1765 3.63839 30.1392C3.4375 30.0507 3.27842 29.8873 3.1945 29.6832C3.11057 29.4792 3.10832 29.2503 3.1882 29.0446ZM47.0791 33.3658C47.7725 33.7099 47.2912 36.9052 44.8592 36.681C42.3443 36.4412 43.6069 34.4031 45.6923 31.2495C50.8048 23.5349 43.9226 17.2746 38.2823 19.1511C36.3232 19.9377 34.5277 21.0869 32.9887 22.5393C40.1296 10.8422 35.193 -0.0312082 24.8076 6.7305e-05H24.6369C23.3484 0.0261302 13.5736 0.927908 13.2942 11.989C13.1752 16.2477 15.1312 18.9374 16.7974 22.6852C18.7999 27.2098 18.3911 32.1826 12.0419 31.3746C13.7288 31.0566 14.8155 30.4207 15.4882 29.6336C14.6913 29.5606 13.8013 29.0185 12.9785 27.9082C11.8556 26.3914 11.7315 25.7815 10.5154 25.0882C5.49607 22.2317 0.352525 27.2775 1.641 32.7872C3.06401 38.8547 7.57108 39.3342 5.93073 42.6911C4.29039 46.048 -1.10153 43.5512 1.51681 38.9798C-0.708265 40.8459 -0.108013 43.9369 0.93208 45.5059C2.48446 47.8464 7.54521 48.498 9.72888 45.3652C8.26965 41.904 6.69657 35.8574 12.8336 34.5595C20.135 33.0218 17.9513 33.3033 19.4209 31.8802C18.5102 35.6958 13.4908 33.8767 11.4158 36.4934C9.07171 39.4437 10.6707 43.4887 10.7535 43.692C11.5555 45.5007 13.1131 47.4711 15.5813 49.4258C16.3317 50.3067 16.9837 51.3544 16.7715 52.6628C16.461 54.581 13.3925 54.628 13.3045 52.0842C13.0354 53.1267 13.1648 55.0867 15.3744 55.5402C17.5839 55.9937 20.7249 52.7879 19.9021 49.53C19.0794 46.2722 18.7378 45.9438 18.8362 44.0203C19.0225 40.3715 22.9758 38.4168 24.285 38.3647C17.853 42.0448 20.1867 56.7286 30.1219 56.7286C38.4013 56.7286 37.8838 47.0958 32.9628 47.8099C29.858 48.253 29.9098 50.4162 29.9098 50.4162C30.7425 50.1309 31.6358 50.0751 32.4971 50.2546C34.3237 50.8176 34.6031 53.304 32.6264 54.3778C30.1892 55.7017 26.2307 53.3352 29.2785 47.7317C29.563 47.2952 29.912 46.905 30.3134 46.5745C29.1646 46.3347 27.5243 45.4799 27.0741 42.6077C26.5049 38.9589 28.7248 36.019 27.3173 35.9304C28.3057 33.7516 31.3328 33.2824 30.0185 36.1024C29.5476 37.1032 24.8076 43.0091 30.805 46.0533C35.5242 47.3616 42.779 42.2168 43.193 46.366C42.8773 48.1018 41.0248 48.8472 40.1244 48.451C40.7092 48.7534 42.6082 49.5665 44.1968 48.1643C47.6017 45.1567 45.4698 40.0848 40.1037 40.9449C33.7028 41.9874 33.1284 39.2456 36.0262 36.6758C38.422 34.5491 39.0636 32.3546 38.6445 30.5093C38.6006 30.4563 38.5656 30.3965 38.541 30.3321C37.8838 28.0125 33.946 24.077 28.0262 29.4095C28.8335 28.4816 30.8671 26.5321 33.6251 26.1203C35.369 25.8649 37.6562 26.2976 38.9343 27.6841C39.8347 25.9848 40.9679 26.6416 41.2163 27.6007C41.5009 28.7058 37.5941 34.7941 39.933 37.3326C42.2719 39.8711 46.5202 38.9693 47.8397 37.2753C49.5732 35.086 48.0312 33.7359 47.0739 33.371L47.0791 33.3658Z" fill="white"/>
<path d="M57.1338 51.1966V44.5652H57.8478V51.1966H57.1338Z" fill="white"/>
<path d="M62.4864 46.1757C62.8981 46.1757 63.2583 46.2546 63.5671 46.4125C63.8823 46.5641 64.1267 46.7977 64.3004 47.1135C64.4805 47.4293 64.5705 47.8272 64.5705 48.3072V51.1966H63.8855V48.3735C63.8855 47.8493 63.7504 47.4546 63.4802 47.1893C63.2165 46.9177 62.8434 46.782 62.361 46.782C62.0008 46.782 61.6856 46.8546 61.4154 46.9998C61.1517 47.1388 60.9459 47.344 60.7979 47.6156C60.6564 47.8809 60.5857 48.203 60.5857 48.5819V51.1966H59.9006V46.223H60.5567V47.5872L60.4506 47.3314C60.6114 46.9714 60.8687 46.6904 61.2225 46.4883C61.5763 46.2799 61.9976 46.1757 62.4864 46.1757Z" fill="white"/>
<path d="M68.0226 51.2439C67.5466 51.2439 67.18 51.1176 66.9227 50.865C66.6654 50.6124 66.5367 50.2555 66.5367 49.7945V45.1241H67.2218V49.7566C67.2218 50.0471 67.2957 50.2713 67.4437 50.4292C67.5981 50.5871 67.8167 50.6661 68.0998 50.6661C68.4021 50.6661 68.653 50.5808 68.8524 50.4103L69.0936 50.8934C68.9585 51.0134 68.7945 51.1018 68.6015 51.1587C68.415 51.2155 68.222 51.2439 68.0226 51.2439ZM65.6298 46.782V46.223H68.7655V46.782H65.6298Z" fill="white"/>
<path d="M72.3132 51.2439C71.7858 51.2439 71.3227 51.1366 70.9239 50.9218C70.5251 50.7008 70.2131 50.4008 69.988 50.0219C69.7628 49.6366 69.6503 49.1977 69.6503 48.7051C69.6503 48.2124 69.7564 47.7767 69.9687 47.3977C70.1874 47.0188 70.4832 46.722 70.8563 46.5072C71.2358 46.2862 71.6604 46.1757 72.1299 46.1757C72.6059 46.1757 73.0272 46.283 73.3939 46.4978C73.767 46.7062 74.0596 47.003 74.2719 47.3883C74.4842 47.7672 74.5903 48.2061 74.5903 48.7051C74.5903 48.7366 74.5871 48.7714 74.5807 48.8093C74.5807 48.8408 74.5807 48.8756 74.5807 48.9135H70.1713V48.4114H74.214L73.9439 48.6103C73.9439 48.2503 73.8634 47.9314 73.7026 47.6535C73.5483 47.3693 73.336 47.1483 73.0658 46.9904C72.7957 46.8325 72.4837 46.7535 72.1299 46.7535C71.7826 46.7535 71.4706 46.8325 71.194 46.9904C70.9174 47.1483 70.7019 47.3693 70.5476 47.6535C70.3932 47.9377 70.316 48.263 70.316 48.6293V48.7335C70.316 49.1124 70.3996 49.4471 70.5669 49.7377C70.7405 50.0219 70.9785 50.2461 71.2809 50.4103C71.5896 50.5682 71.9402 50.6471 72.3326 50.6471C72.6413 50.6471 72.9275 50.5934 73.1913 50.4861C73.4614 50.3787 73.693 50.2145 73.886 49.9934L74.2719 50.4292C74.0468 50.6945 73.7637 50.8966 73.4228 51.0355C73.0883 51.1745 72.7185 51.2439 72.3132 51.2439Z" fill="white"/>
<path d="M78.146 53.0818C77.6828 53.0818 77.239 53.0155 76.8144 52.8828C76.3899 52.7502 76.0458 52.5607 75.7821 52.3144L76.1294 51.8029C76.3674 52.0113 76.6601 52.1755 77.0074 52.2955C77.3612 52.4218 77.7343 52.485 78.1266 52.485C78.7699 52.485 79.2427 52.3365 79.545 52.0397C79.8473 51.7492 79.9985 51.2945 79.9985 50.6755V49.4345L80.0949 48.5819L80.0274 47.7293V46.223H80.6835V50.5903C80.6835 51.4492 80.468 52.0776 80.0371 52.4755C79.6125 52.8797 78.9822 53.0818 78.146 53.0818ZM78.0205 51.0071C77.5381 51.0071 77.1039 50.9061 76.718 50.704C76.332 50.4955 76.0265 50.2082 75.8014 49.8419C75.5826 49.4756 75.4733 49.0556 75.4733 48.5819C75.4733 48.1082 75.5826 47.6914 75.8014 47.3314C76.0265 46.9651 76.332 46.6809 76.718 46.4788C77.1039 46.2767 77.5381 46.1757 78.0205 46.1757C78.4708 46.1757 78.876 46.2672 79.2362 46.4504C79.5964 46.6335 79.8827 46.9051 80.0949 47.2651C80.3072 47.6251 80.4134 48.064 80.4134 48.5819C80.4134 49.0998 80.3072 49.5387 80.0949 49.8987C79.8827 50.2587 79.5964 50.5334 79.2362 50.7229C78.876 50.9124 78.4708 51.0071 78.0205 51.0071ZM78.0881 50.4103C78.4611 50.4103 78.7924 50.3345 79.0819 50.1829C79.3713 50.025 79.5997 49.8103 79.7669 49.5387C79.9341 49.2608 80.0178 48.9419 80.0178 48.5819C80.0178 48.2219 79.9341 47.9061 79.7669 47.6346C79.5997 47.363 79.3713 47.1514 79.0819 46.9998C78.7924 46.842 78.4611 46.763 78.0881 46.763C77.7214 46.763 77.3901 46.842 77.0943 46.9998C76.8048 47.1514 76.5764 47.363 76.4092 47.6346C76.2484 47.9061 76.168 48.2219 76.168 48.5819C76.168 48.9419 76.2484 49.2608 76.4092 49.5387C76.5764 49.8103 76.8048 50.025 77.0943 50.1829C77.3901 50.3345 77.7214 50.4103 78.0881 50.4103Z" fill="white"/>
<path d="M82.5898 51.1966V46.223H83.2459V47.5777L83.1783 47.3409C83.3199 46.9619 83.5578 46.6746 83.8923 46.4788C84.2268 46.2767 84.6417 46.1757 85.137 46.1757V46.8293C85.1113 46.8293 85.0855 46.8293 85.0598 46.8293C85.0341 46.823 85.0083 46.8198 84.9826 46.8198C84.4487 46.8198 84.0306 46.9809 83.7283 47.303C83.426 47.6188 83.2748 48.0703 83.2748 48.6577V51.1966H82.5898Z" fill="white"/>
<path d="M89.1845 51.1966V50.0977L89.1555 49.9177V48.0798C89.1555 47.6567 89.0333 47.3314 88.7889 47.1041C88.5509 46.8767 88.1939 46.763 87.7179 46.763C87.3899 46.763 87.0779 46.8167 86.782 46.9241C86.4861 47.0314 86.2352 47.1735 86.0294 47.3504L85.7207 46.8483C85.978 46.6335 86.2867 46.4693 86.6469 46.3556C87.0071 46.2357 87.3866 46.1757 87.7854 46.1757C88.4415 46.1757 88.9465 46.3367 89.3003 46.6588C89.6605 46.9746 89.8406 47.4577 89.8406 48.1082V51.1966H89.1845ZM87.4381 51.2439C87.0586 51.2439 86.7273 51.1839 86.4443 51.0639C86.1677 50.9376 85.9554 50.7671 85.8075 50.5524C85.6596 50.3313 85.5856 50.0787 85.5856 49.7945C85.5856 49.5356 85.6467 49.3019 85.7689 49.0935C85.8975 48.8787 86.1034 48.7082 86.3864 48.5819C86.6759 48.4493 87.0618 48.383 87.5442 48.383H89.2906V48.8851H87.5635C87.0747 48.8851 86.7338 48.9703 86.5408 49.1408C86.3542 49.3114 86.261 49.5229 86.261 49.7756C86.261 50.0598 86.3735 50.2871 86.5987 50.4576C86.8238 50.6282 87.139 50.7134 87.5442 50.7134C87.9302 50.7134 88.2614 50.6282 88.538 50.4576C88.8211 50.2808 89.0269 50.0282 89.1555 49.6998L89.3099 50.164C89.1813 50.4924 88.9561 50.7545 88.6345 50.9503C88.3193 51.146 87.9205 51.2439 87.4381 51.2439Z" fill="white"/>
<path d="M93.3029 51.2439C92.8269 51.2439 92.4603 51.1176 92.203 50.865C91.9457 50.6124 91.817 50.2555 91.817 49.7945V45.1241H92.5021V49.7566C92.5021 50.0471 92.576 50.2713 92.724 50.4292C92.8784 50.5871 93.0971 50.6661 93.3801 50.6661C93.6824 50.6661 93.9333 50.5808 94.1327 50.4103L94.3739 50.8934C94.2388 51.0134 94.0748 51.1018 93.8818 51.1587C93.6953 51.2155 93.5023 51.2439 93.3029 51.2439ZM90.9101 46.782V46.223H94.0458V46.782H90.9101Z" fill="white"/>
<path d="M97.5067 51.2439C97.0179 51.2439 96.5772 51.1366 96.1849 50.9218C95.7989 50.7008 95.4934 50.4008 95.2683 50.0219C95.0431 49.6366 94.9306 49.1977 94.9306 48.7051C94.9306 48.2061 95.0431 47.7672 95.2683 47.3883C95.4934 47.0093 95.7989 46.7125 96.1849 46.4978C96.5708 46.283 97.0114 46.1757 97.5067 46.1757C98.0085 46.1757 98.4523 46.283 98.8382 46.4978C99.2306 46.7125 99.5361 47.0093 99.7548 47.3883C99.98 47.7672 100.093 48.2061 100.093 48.7051C100.093 49.1977 99.98 49.6366 99.7548 50.0219C99.5361 50.4008 99.2306 50.7008 98.8382 50.9218C98.4458 51.1366 98.002 51.2439 97.5067 51.2439ZM97.5067 50.6471C97.8734 50.6471 98.1982 50.5682 98.4812 50.4103C98.7643 50.2461 98.9862 50.0187 99.147 49.7282C99.3142 49.4314 99.3978 49.0903 99.3978 48.7051C99.3978 48.3135 99.3142 47.9725 99.147 47.6819C98.9862 47.3914 98.7643 47.1672 98.4812 47.0093C98.1982 46.8451 97.8766 46.763 97.5164 46.763C97.1562 46.763 96.8345 46.8451 96.5515 47.0093C96.2685 47.1672 96.0434 47.3914 95.8761 47.6819C95.7089 47.9725 95.6253 48.3135 95.6253 48.7051C95.6253 49.0903 95.7089 49.4314 95.8761 49.7282C96.0434 50.0187 96.2685 50.2461 96.5515 50.4103C96.8345 50.5682 97.1529 50.6471 97.5067 50.6471Z" fill="white"/>
<path d="M101.491 51.1966V46.223H102.147V47.5777L102.08 47.3409C102.221 46.9619 102.459 46.6746 102.794 46.4788C103.128 46.2767 103.543 46.1757 104.038 46.1757V46.8293C104.013 46.8293 103.987 46.8293 103.961 46.8293C103.935 46.823 103.91 46.8198 103.884 46.8198C103.35 46.8198 102.932 46.9809 102.63 47.303C102.327 47.6188 102.176 48.0703 102.176 48.6577V51.1966H101.491Z" fill="white"/>
<path d="M108.921 51.1966L107.011 46.223H107.667L109.404 50.8366H109.105L110.89 46.223H111.478L113.244 50.8366H112.945L114.71 46.223H115.338L113.418 51.1966H112.771L111.073 46.8577H111.276L109.568 51.1966H108.921Z" fill="white"/>
<path d="M118.379 51.2439C117.852 51.2439 117.389 51.1366 116.99 50.9218C116.591 50.7008 116.279 50.4008 116.054 50.0219C115.829 49.6366 115.716 49.1977 115.716 48.7051C115.716 48.2124 115.823 47.7767 116.035 47.3977C116.253 47.0188 116.549 46.722 116.922 46.5072C117.302 46.2862 117.727 46.1757 118.196 46.1757C118.672 46.1757 119.093 46.283 119.46 46.4978C119.833 46.7062 120.126 47.003 120.338 47.3883C120.55 47.7672 120.656 48.2061 120.656 48.7051C120.656 48.7366 120.653 48.7714 120.647 48.8093C120.647 48.8408 120.647 48.8756 120.647 48.9135H116.237V48.4114H120.28L120.01 48.6103C120.01 48.2503 119.93 47.9314 119.769 47.6535C119.614 47.3693 119.402 47.1483 119.132 46.9904C118.862 46.8325 118.55 46.7535 118.196 46.7535C117.849 46.7535 117.537 46.8325 117.26 46.9904C116.984 47.1483 116.768 47.3693 116.614 47.6535C116.459 47.9377 116.382 48.263 116.382 48.6293V48.7335C116.382 49.1124 116.466 49.4471 116.633 49.7377C116.807 50.0219 117.045 50.2461 117.347 50.4103C117.656 50.5682 118.006 50.6471 118.399 50.6471C118.707 50.6471 118.994 50.5934 119.257 50.4861C119.528 50.3787 119.759 50.2145 119.952 49.9934L120.338 50.4292C120.113 50.6945 119.83 50.8966 119.489 51.0355C119.154 51.1745 118.785 51.2439 118.379 51.2439Z" fill="white"/>
<path d="M124.666 51.2439C124.222 51.2439 123.823 51.146 123.469 50.9503C123.115 50.7482 122.836 50.4576 122.63 50.0787C122.424 49.6998 122.321 49.2419 122.321 48.7051C122.321 48.1619 122.424 47.704 122.63 47.3314C122.842 46.9525 123.125 46.6651 123.479 46.4693C123.833 46.2735 124.228 46.1757 124.666 46.1757C125.148 46.1757 125.579 46.283 125.958 46.4978C126.344 46.7062 126.647 46.9998 126.865 47.3788C127.084 47.7577 127.193 48.1998 127.193 48.7051C127.193 49.204 127.084 49.6461 126.865 50.0313C126.647 50.4103 126.344 50.7071 125.958 50.9218C125.579 51.1366 125.148 51.2439 124.666 51.2439ZM122.051 51.1966V44.1673H122.736V47.6914L122.639 48.6956L122.707 49.6998V51.1966H122.051ZM124.617 50.6471C124.978 50.6471 125.299 50.5682 125.582 50.4103C125.865 50.2461 126.09 50.0187 126.258 49.7282C126.425 49.4314 126.508 49.0903 126.508 48.7051C126.508 48.3135 126.425 47.9725 126.258 47.6819C126.09 47.3914 125.865 47.1672 125.582 47.0093C125.299 46.8451 124.978 46.763 124.617 46.763C124.257 46.763 123.932 46.8451 123.643 47.0093C123.36 47.1672 123.135 47.3914 122.967 47.6819C122.807 47.9725 122.726 48.3135 122.726 48.7051C122.726 49.0903 122.807 49.4314 122.967 49.7282C123.135 50.0187 123.36 50.2461 123.643 50.4103C123.932 50.5682 124.257 50.6471 124.617 50.6471Z" fill="white"/>
<path d="M132.678 51.2534C132.189 51.2534 131.726 51.1776 131.289 51.0261C130.858 50.8682 130.511 50.6597 130.247 50.4008L130.585 49.8608C130.803 50.0819 131.096 50.265 131.463 50.4103C131.836 50.5555 132.241 50.6282 132.678 50.6282C133.238 50.6282 133.666 50.5082 133.961 50.2682C134.264 50.0282 134.415 49.7061 134.415 49.3019C134.415 48.8977 134.267 48.5756 133.971 48.3356C133.682 48.0956 133.222 47.9756 132.591 47.9756H132.109V47.4735L134.193 44.9062L134.29 45.1715H130.527V44.5652H134.868V45.0483L132.784 47.6156L132.447 47.3977H132.707C133.518 47.3977 134.122 47.5746 134.521 47.9282C134.926 48.2819 135.129 48.7366 135.129 49.2924C135.129 49.665 135.039 49.9998 134.859 50.2966C134.679 50.5934 134.405 50.8271 134.039 50.9976C133.678 51.1682 133.225 51.2534 132.678 51.2534Z" fill="white"/>
<path d="M136.629 51.2439C136.487 51.2439 136.365 51.1934 136.262 51.0924C136.166 50.9913 136.117 50.8682 136.117 50.7229C136.117 50.5713 136.166 50.4482 136.262 50.3534C136.365 50.2587 136.487 50.2113 136.629 50.2113C136.77 50.2113 136.889 50.2587 136.986 50.3534C137.089 50.4482 137.14 50.5713 137.14 50.7229C137.14 50.8682 137.089 50.9913 136.986 51.0924C136.889 51.1934 136.77 51.2439 136.629 51.2439Z" fill="white"/>
<path d="M140.741 51.2534C140.22 51.2534 139.757 51.1208 139.351 50.8555C138.946 50.584 138.628 50.1987 138.396 49.6998C138.165 49.1945 138.049 48.5882 138.049 47.8809C138.049 47.1735 138.165 46.5704 138.396 46.0714C138.628 45.5662 138.946 45.1809 139.351 44.9157C139.757 44.6441 140.22 44.5083 140.741 44.5083C141.262 44.5083 141.725 44.6441 142.13 44.9157C142.535 45.1809 142.854 45.5662 143.085 46.0714C143.323 46.5704 143.442 47.1735 143.442 47.8809C143.442 48.5882 143.323 49.1945 143.085 49.6998C142.854 50.1987 142.535 50.584 142.13 50.8555C141.725 51.1208 141.262 51.2534 140.741 51.2534ZM140.741 50.6282C141.14 50.6282 141.487 50.524 141.783 50.3155C142.079 50.1008 142.31 49.7913 142.478 49.3871C142.645 48.9766 142.728 48.4745 142.728 47.8809C142.728 47.2872 142.645 46.7883 142.478 46.3841C142.31 45.9736 142.079 45.6641 141.783 45.4557C141.487 45.2409 141.14 45.1336 140.741 45.1336C140.355 45.1336 140.011 45.2409 139.708 45.4557C139.406 45.6641 139.171 45.9736 139.004 46.3841C138.837 46.7883 138.753 47.2872 138.753 47.8809C138.753 48.4745 138.837 48.9766 139.004 49.3871C139.171 49.7913 139.406 50.1008 139.708 50.3155C140.011 50.524 140.355 50.6282 140.741 50.6282Z" fill="white"/>
</svg>
