<svg width="25" height="24" viewBox="0 0 25 24" fill="none" xmlns="http://www.w3.org/2000/svg">
<g clip-path="url(#clip0_198_3252)">
<path fill-rule="evenodd" clip-rule="evenodd" d="M12.2086 1.56001C13.2073 0.561307 14.5618 0.000244141 15.9742 0.000244141C17.3866 0.000244141 18.7411 0.561307 19.7398 1.56001C20.7385 2.55871 21.2996 3.91323 21.2996 5.32561C21.2996 6.73798 20.7385 8.09251 19.7398 9.09121L10.5286 18.3024C10.2442 18.5869 9.90658 18.8126 9.53497 18.9666C9.16335 19.1206 8.76504 19.1999 8.36278 19.2C7.55037 19.2001 6.77118 18.8776 6.19661 18.3032C5.62205 17.7288 5.29918 16.9498 5.29903 16.1374C5.29888 15.325 5.62146 14.5458 6.19582 13.9712L15.1318 5.03361L16.2646 6.16641L7.32702 15.1024C7.19118 15.2382 7.08342 15.3995 7.00991 15.577C6.93639 15.7545 6.89855 15.9447 6.89855 16.1368C6.89855 16.3289 6.93639 16.5191 7.00991 16.6966C7.08342 16.8741 7.19118 17.0354 7.32702 17.1712C7.46285 17.307 7.62412 17.4148 7.8016 17.4883C7.97908 17.5618 8.16931 17.5997 8.36141 17.5997C8.55352 17.5997 8.74375 17.5618 8.92123 17.4883C9.09871 17.4148 9.25998 17.307 9.39581 17.1712L18.607 7.96001C18.953 7.61405 19.2274 7.20334 19.4146 6.75133C19.6019 6.29932 19.6982 5.81486 19.6982 5.32561C19.6982 4.83635 19.6019 4.35189 19.4146 3.89988C19.2274 3.44787 18.953 3.03716 18.607 2.69121C18.2611 2.34525 17.8504 2.07083 17.3983 1.8836C16.9463 1.69637 16.4619 1.6 15.9726 1.6C15.4834 1.6 14.9989 1.69637 14.5469 1.8836C14.0949 2.07083 13.6842 2.34525 13.3382 2.69121L3.85342 12.1776C2.75313 13.3053 2.14157 14.8212 2.15128 16.3967C2.16098 17.9723 2.79116 19.4805 3.90524 20.5946C5.01933 21.7087 6.52756 22.3388 8.10309 22.3485C9.67861 22.3582 11.1945 21.7467 12.3222 20.6464L21.5334 11.4336L22.6662 12.5664L13.4534 21.7776C12.0217 23.1579 10.1053 23.9209 8.11671 23.9027C6.12808 23.8844 4.22609 23.0862 2.81996 21.6799C1.41384 20.2735 0.615948 18.3714 0.597967 16.3828C0.579985 14.3942 1.34335 12.4779 2.72381 11.0464L12.2086 1.55841V1.56001Z" fill="white"/>
</g>
<defs>
<clipPath id="clip0_198_3252">
<rect width="24" height="24" fill="white" transform="translate(0.5)"/>
</clipPath>
</defs>
</svg>
