<svg width="176" height="76" viewBox="0 0 176 76" fill="none" xmlns="http://www.w3.org/2000/svg">
<path d="M36.9002 75.9239H35.53V69.8849L33.4494 74.2873H32.4344L30.303 69.8849V75.9239H28.9328V66.8907H30.303L32.9419 72.5111L35.53 66.8907H36.9002V75.9239Z" fill="white"/>
<path d="M46.0917 75.9239H40.3191V66.8907H46.0917V68.1214H41.6893V70.7603H45.4447V71.9782H41.6893V74.6932H46.0917V75.9239Z" fill="white"/>
<path d="M55.8295 75.9239H54.5735L50.3994 69.5677V75.9239H49.0292V66.8907H50.2853L54.4593 73.2342V66.8907H55.8295V75.9239Z" fill="white"/>
<path d="M60.4816 68.2229L59.0606 69.3774V66.8907H60.4816V68.2229Z" fill="white"/>
<path d="M69.3571 73.3484C69.3571 75.0104 68.0123 76 66.1092 76C64.7517 76 63.7875 75.6828 62.9121 74.8074L63.8129 73.9066C64.4726 74.5664 65.2212 74.7821 66.1346 74.7821C67.3272 74.7821 67.9996 74.2746 67.9996 73.3865C67.9996 72.9805 67.8981 72.6633 67.6444 72.4476C67.416 72.2446 67.1115 72.1305 66.6548 72.067L65.5891 71.9148C64.8532 71.8006 64.2823 71.5722 63.889 71.1916C63.445 70.7856 63.2166 70.202 63.2166 69.4535C63.2166 67.8803 64.3584 66.8146 66.2361 66.8146C67.4414 66.8146 68.266 67.1191 69.0399 67.8422L68.1772 68.705C67.619 68.1721 66.9593 68.0072 66.1854 68.0072C65.1197 68.0072 64.5487 68.5908 64.5487 69.4154C64.5487 69.7453 64.6376 70.0498 64.8786 70.2528C65.107 70.4558 65.3734 70.5826 65.8682 70.6588L66.9466 70.8237C67.7712 70.9506 68.228 71.1409 68.6213 71.4961C69.1034 71.9402 69.3571 72.5618 69.3571 73.3484Z" fill="white"/>
<path d="M82.5907 72.4223C82.5907 73.6022 82.375 74.3253 81.7787 74.9724C81.1063 75.6828 80.2436 76 79.2921 76C78.3025 76 77.5412 75.6701 76.9576 75.0865C76.0822 74.1984 76.0442 73.2977 76.0442 71.4073C76.0442 69.5169 76.0822 68.6162 76.9576 67.7281C77.5412 67.1445 78.3025 66.8146 79.2921 66.8146C81.1951 66.8146 82.3243 68.0706 82.5653 69.6057H81.1951C80.9667 68.6162 80.307 68.0326 79.2921 68.0326C78.7465 68.0326 78.2898 68.2355 77.9472 68.5908C77.5032 69.0729 77.4144 69.6184 77.4144 71.4073C77.4144 73.1962 77.5032 73.7417 77.9472 74.2238C78.2898 74.5791 78.7465 74.7821 79.2921 74.7821C79.8883 74.7821 80.4212 74.5537 80.7764 74.135C81.1063 73.7544 81.2205 73.2977 81.2205 72.7141V72.2066H79.2921V71.0394H82.5907V72.4223Z" fill="white"/>
<path d="M92.2634 75.9239H90.6649L88.7618 72.1178H87.0491V75.9239H85.6789V66.8907H89.1805C90.8932 66.8907 91.9843 67.9945 91.9843 69.5296C91.9843 70.8237 91.1977 71.6484 90.1828 71.9275L92.2634 75.9239ZM90.6141 69.5423C90.6141 68.6542 89.9925 68.1214 89.079 68.1214H87.0491V70.9506H89.079C89.9925 70.9506 90.6141 70.4304 90.6141 69.5423Z" fill="white"/>
<path d="M101.1 71.4073C101.1 73.2977 101.075 74.1984 100.187 75.0865C99.603 75.6701 98.8418 76 97.8522 76C96.8626 76 96.1014 75.6701 95.5178 75.0865C94.6297 74.1984 94.6043 73.2977 94.6043 71.4073C94.6043 69.5169 94.6297 68.6162 95.5178 67.7281C96.1014 67.1445 96.8626 66.8146 97.8522 66.8146C98.8418 66.8146 99.603 67.1445 100.187 67.7281C101.075 68.6162 101.1 69.5169 101.1 71.4073ZM99.7299 71.4073C99.7299 69.6184 99.6537 69.0602 99.197 68.5908C98.8545 68.2355 98.3977 68.0326 97.8522 68.0326C97.3066 68.0326 96.8499 68.2355 96.5074 68.5908C96.0633 69.0729 95.9745 69.6184 95.9745 71.4073C95.9745 73.1962 96.0633 73.729 96.5074 74.2111C96.8499 74.5664 97.3066 74.7821 97.8522 74.7821C98.3977 74.7821 98.8545 74.5664 99.197 74.2111C99.6537 73.7417 99.7299 73.1962 99.7299 71.4073Z" fill="white"/>
<path d="M110.244 71.4073C110.244 73.2977 110.218 74.1984 109.33 75.0865C108.747 75.6701 107.986 76 106.996 76C106.006 76 105.245 75.6701 104.662 75.0865C103.773 74.1984 103.748 73.2977 103.748 71.4073C103.748 69.5169 103.773 68.6162 104.662 67.7281C105.245 67.1445 106.006 66.8146 106.996 66.8146C107.986 66.8146 108.747 67.1445 109.33 67.7281C110.218 68.6162 110.244 69.5169 110.244 71.4073ZM108.874 71.4073C108.874 69.6184 108.798 69.0602 108.341 68.5908C107.998 68.2355 107.541 68.0326 106.996 68.0326C106.45 68.0326 105.994 68.2355 105.651 68.5908C105.207 69.0729 105.118 69.6184 105.118 71.4073C105.118 73.1962 105.207 73.729 105.651 74.2111C105.994 74.5664 106.45 74.7821 106.996 74.7821C107.541 74.7821 107.998 74.5664 108.341 74.2111C108.798 73.7417 108.874 73.1962 108.874 71.4073Z" fill="white"/>
<path d="M121.313 75.9239H119.943V69.8849L117.862 74.2873H116.847L114.716 69.8849V75.9239H113.346V66.8907H114.716L117.355 72.5111L119.943 66.8907H121.313V75.9239Z" fill="white"/>
<path d="M126.102 75.9239H124.732V66.8907H126.102V75.9239Z" fill="white"/>
<path d="M136.327 75.9239H135.071L130.897 69.5677V75.9239H129.527V66.8907H130.783L134.957 73.2342V66.8907H136.327V75.9239Z" fill="white"/>
<path d="M145.965 72.4223C145.965 73.6022 145.75 74.3253 145.153 74.9724C144.481 75.6828 143.618 76 142.667 76C141.677 76 140.916 75.6701 140.332 75.0865C139.457 74.1984 139.419 73.2977 139.419 71.4073C139.419 69.5169 139.457 68.6162 140.332 67.7281C140.916 67.1445 141.677 66.8146 142.667 66.8146C144.57 66.8146 145.699 68.0706 145.94 69.6057H144.57C144.341 68.6162 143.682 68.0326 142.667 68.0326C142.121 68.0326 141.664 68.2355 141.322 68.5908C140.878 69.0729 140.789 69.6184 140.789 71.4073C140.789 73.1962 140.878 73.7417 141.322 74.2238C141.664 74.5791 142.121 74.7821 142.667 74.7821C143.263 74.7821 143.796 74.5537 144.151 74.135C144.481 73.7544 144.595 73.2977 144.595 72.7141V72.2066H142.667V71.0394H145.965V72.4223Z" fill="white"/>
<path d="M0.39647 26.5635V34.0964H11.1011L0 48.964V55.3075H21.8058V47.7746H10.3082L21.2111 32.7087V26.5635H0.39647Z" fill="white"/>
<path fill-rule="evenodd" clip-rule="evenodd" d="M37.3673 55.9022C44.8668 55.9022 50.9463 49.157 50.9463 40.8364C50.9463 32.5157 44.8668 25.7705 37.3673 25.7705C29.8677 25.7705 23.7882 32.5157 23.7882 40.8364C23.7882 49.157 29.8677 55.9022 37.3673 55.9022ZM37.3673 47.7746C40.4875 47.7746 43.0169 44.6683 43.0169 40.8364C43.0169 37.0045 40.4875 33.8981 37.3673 33.8981C34.247 33.8981 31.7176 37.0045 31.7176 40.8364C31.7176 44.6683 34.247 47.7746 37.3673 47.7746Z" fill="white"/>
<path d="M60.8581 25.5723L53.1269 31.1229V55.3075H67.5981V47.7746H60.8581V25.5723Z" fill="white"/>
<path d="M78.501 12.687L70.7698 18.2376V55.3075H85.241V47.7746H78.501V12.687Z" fill="white"/>
<path d="M95.9456 0L88.2145 5.55057V18.6341L95.9456 12.5879V0Z" fill="white"/>
<path d="M95.9456 16.6517L88.2145 22.2023V55.3075H95.9456V16.6517Z" fill="white"/>
<path fill-rule="evenodd" clip-rule="evenodd" d="M99.9103 26.5635V55.3075H110.813C118.367 55.3075 124.491 49.1836 124.491 41.6293V40.2417C124.491 32.6874 118.367 26.5635 110.813 26.5635H99.9103ZM107.641 34.0964V47.7746H110.813C113.988 47.7746 116.562 45.2007 116.562 42.0258V39.8452C116.562 36.6702 113.988 34.0964 110.813 34.0964H107.641Z" fill="white"/>
<path d="M127.861 26.5635H147.487V34.0964H135.394V37.4664H142.927V44.4046H135.394V47.7746H147.685V55.3075H127.861V26.5635Z" fill="white"/>
<path fill-rule="evenodd" clip-rule="evenodd" d="M150.658 55.3075V26.5635H163.345C168.272 26.5635 172.266 30.5573 172.266 35.484V36.1023C172.266 38.665 171.139 41.098 169.184 42.7553L167.707 44.0081L175.24 55.3075H166.22L159.48 44.9993H158.39V55.3075H150.658ZM158.39 33.8981V38.4575H162.156C163.415 38.4575 164.436 37.4369 164.436 36.1778C164.436 34.9188 163.415 33.8981 162.156 33.8981H158.39Z" fill="white"/>
</svg>
