<svg width="24" height="24" viewBox="0 0 24 24" fill="none" xmlns="http://www.w3.org/2000/svg">
<path d="M17.8418 12.74C17.5618 12.17 16.7718 11.69 15.7218 12.5C14.2918 13.64 12.0118 13.64 12.0118 13.64C12.0118 13.64 9.73177 13.64 8.30177 12.5C7.25177 11.69 6.46177 12.17 6.18177 12.74C5.68177 13.74 6.24177 14.23 7.51177 15.04C8.60177 15.74 10.0918 16 11.0518 16.1L10.2518 16.9C9.11177 18.03 8.01177 19.12 7.26177 19.88C6.81177 20.34 6.81177 21.07 7.26177 21.5L7.40177 21.66C7.85177 22.11 8.59177 22.11 9.04177 21.66L12.0118 18.68C13.1618 19.81 14.2518 20.9 15.0118 21.66C15.4618 22.11 16.1918 22.11 16.6518 21.66L16.7818 21.5C17.2418 21.07 17.2418 20.34 16.7818 19.88L13.8018 16.9L13.0118 16.09C13.9618 16 15.4318 15.73 16.5118 15.04C17.7818 14.23 18.3418 13.74 17.8418 12.74ZM12.0118 4.57C13.3918 4.57 14.5118 5.69 14.5118 7.06C14.5118 8.44 13.3918 9.55 12.0118 9.55C10.6318 9.55 9.51177 8.44 9.51177 7.06C9.51177 5.69 10.6318 4.57 12.0118 4.57ZM12.0118 12.12C14.8118 12.12 17.0718 9.86 17.0718 7.06C17.0718 5.718 16.5387 4.43097 15.5897 3.48204C14.6408 2.53311 13.3538 2 12.0118 2C10.6698 2 9.38274 2.53311 8.43381 3.48204C7.48488 4.43097 6.95177 5.718 6.95177 7.06C6.95177 9.86 9.21177 12.12 12.0118 12.12Z" fill="white"/>
</svg>
