<svg width="146" height="146" viewBox="0 0 146 146" fill="none" xmlns="http://www.w3.org/2000/svg">
<g clip-path="url(#clip0_234_2723)">
<path d="M17.6973 115.03V128.303H30.97V115.03H17.6973Z" fill="#3C3C3B"/>
<path d="M8.84863 137.151H39.8183V106.182H8.84863L8.84863 137.151ZM13.2729 132.727L13.2729 110.606H35.3941V132.727H13.2729Z" fill="#3C3C3B"/>
<path d="M128.303 30.9695V17.6968H115.03V30.9695H128.303Z" fill="#3C3C3B"/>
<path d="M137.151 8.84839L106.182 8.84839V39.8181H137.151V8.84839ZM132.727 13.2726V35.3939H110.606V13.2726L132.727 13.2726Z" fill="#3C3C3B"/>
<path d="M30.97 17.6968H17.6973V30.9695H30.97V17.6968Z" fill="#3C3C3B"/>
<path d="M8.84863 8.84839V39.8181H39.8183V8.84839H8.84863ZM13.2729 13.2726H35.3941V35.3939H13.2729V13.2726Z" fill="#3C3C3B"/>
<path d="M53.0912 8.84839H48.667V13.2726H53.0912V8.84839Z" fill="#3C3C3B"/>
<path d="M61.9394 8.84839H57.5151V13.2726H61.9394V8.84839Z" fill="#3C3C3B"/>
<path d="M66.3637 8.84839H61.9395V13.2726H66.3637V8.84839Z" fill="#3C3C3B"/>
<path d="M84.061 8.84839H79.6367V13.2726H84.061V8.84839Z" fill="#3C3C3B"/>
<path d="M88.4848 8.84839H84.0605V13.2726H88.4848V8.84839Z" fill="#3C3C3B"/>
<path d="M48.6669 13.2727H44.2427V17.6969H48.6669V13.2727Z" fill="#3C3C3B"/>
<path d="M92.9091 13.2727H88.4849V17.6969H92.9091V13.2727Z" fill="#3C3C3B"/>
<path d="M48.6669 17.6968H44.2427V22.121H48.6669V17.6968Z" fill="#3C3C3B"/>
<path d="M57.5155 17.6968H53.0913V22.121H57.5155V17.6968Z" fill="#3C3C3B"/>
<path d="M61.9394 17.6968H57.5151V22.121H61.9394V17.6968Z" fill="#3C3C3B"/>
<path d="M75.2123 17.6968H70.7881V22.121H75.2123V17.6968Z" fill="#3C3C3B"/>
<path d="M79.6366 17.6968H75.2124V22.121H79.6366V17.6968Z" fill="#3C3C3B"/>
<path d="M97.3334 17.6968H92.9092V22.121H97.3334V17.6968Z" fill="#3C3C3B"/>
<path d="M53.0912 22.1211H48.667V26.5453H53.0912V22.1211Z" fill="#3C3C3B"/>
<path d="M61.9394 22.1211H57.5151V26.5453H61.9394V22.1211Z" fill="#3C3C3B"/>
<path d="M66.3637 22.1211H61.9395V26.5453H66.3637V22.1211Z" fill="#3C3C3B"/>
<path d="M79.6366 22.1211H75.2124V26.5453H79.6366V22.1211Z" fill="#3C3C3B"/>
<path d="M88.4848 22.1211H84.0605V26.5453H88.4848V22.1211Z" fill="#3C3C3B"/>
<path d="M53.0912 26.5454H48.667V30.9697H53.0912V26.5454Z" fill="#3C3C3B"/>
<path d="M57.5155 26.5454H53.0913V30.9697H57.5155V26.5454Z" fill="#3C3C3B"/>
<path d="M66.3637 26.5454H61.9395V30.9697H66.3637V26.5454Z" fill="#3C3C3B"/>
<path d="M70.788 26.5454H66.3638V30.9697H70.788V26.5454Z" fill="#3C3C3B"/>
<path d="M79.6366 26.5454H75.2124V30.9697H79.6366V26.5454Z" fill="#3C3C3B"/>
<path d="M97.3334 26.5454H92.9092V30.9697H97.3334V26.5454Z" fill="#3C3C3B"/>
<path d="M101.758 26.5454H97.3335V30.9697H101.758V26.5454Z" fill="#3C3C3B"/>
<path d="M61.9394 30.9697H57.5151V35.394H61.9394V30.9697Z" fill="#3C3C3B"/>
<path d="M66.3637 30.9697H61.9395V35.394H66.3637V30.9697Z" fill="#3C3C3B"/>
<path d="M70.788 30.9697H66.3638V35.394H70.788V30.9697Z" fill="#3C3C3B"/>
<path d="M88.4848 30.9697H84.0605V35.394H88.4848V30.9697Z" fill="#3C3C3B"/>
<path d="M92.9091 30.9697H88.4849V35.394H92.9091V30.9697Z" fill="#3C3C3B"/>
<path d="M97.3334 30.9697H92.9092V35.394H97.3334V30.9697Z" fill="#3C3C3B"/>
<path d="M101.758 30.9697H97.3335V35.394H101.758V30.9697Z" fill="#3C3C3B"/>
<path d="M48.6669 35.3938H44.2427V39.818H48.6669V35.3938Z" fill="#3C3C3B"/>
<path d="M57.5155 35.3938H53.0913V39.818H57.5155V35.3938Z" fill="#3C3C3B"/>
<path d="M66.3637 35.3938H61.9395V39.818H66.3637V35.3938Z" fill="#3C3C3B"/>
<path d="M75.2123 35.3938H70.7881V39.818H75.2123V35.3938Z" fill="#3C3C3B"/>
<path d="M84.061 35.3938H79.6367V39.818H84.061V35.3938Z" fill="#3C3C3B"/>
<path d="M92.9091 35.3938H88.4849V39.818H92.9091V35.3938Z" fill="#3C3C3B"/>
<path d="M101.758 35.3938H97.3335V39.818H101.758V35.3938Z" fill="#3C3C3B"/>
<path d="M57.5155 39.8181H53.0913V44.2424H57.5155V39.8181Z" fill="#3C3C3B"/>
<path d="M70.788 39.8181H66.3638V44.2424H70.788V39.8181Z" fill="#3C3C3B"/>
<path d="M75.2123 39.8181H70.7881V44.2424H75.2123V39.8181Z" fill="#3C3C3B"/>
<path d="M84.061 39.8181H79.6367V44.2424H84.061V39.8181Z" fill="#3C3C3B"/>
<path d="M97.3334 39.8181H92.9092V44.2424H97.3334V39.8181Z" fill="#3C3C3B"/>
<path d="M101.758 39.8181H97.3335V44.2424H101.758V39.8181Z" fill="#3C3C3B"/>
<path d="M17.6972 44.2424H13.2729V48.6667H17.6972V44.2424Z" fill="#3C3C3B"/>
<path d="M22.1215 44.2424H17.6973V48.6667H22.1215V44.2424Z" fill="#3C3C3B"/>
<path d="M26.5458 44.2424H22.1216V48.6667H26.5458V44.2424Z" fill="#3C3C3B"/>
<path d="M35.394 44.2424H30.9697V48.6667H35.394V44.2424Z" fill="#3C3C3B"/>
<path d="M39.8183 44.2424H35.394V48.6667H39.8183V44.2424Z" fill="#3C3C3B"/>
<path d="M53.0912 44.2424H48.667V48.6667H53.0912V44.2424Z" fill="#3C3C3B"/>
<path d="M66.3637 44.2424H61.9395V48.6667H66.3637V44.2424Z" fill="#3C3C3B"/>
<path d="M75.2123 44.2424H70.7881V48.6667H75.2123V44.2424Z" fill="#3C3C3B"/>
<path d="M92.9091 44.2424H88.4849V48.6667H92.9091V44.2424Z" fill="#3C3C3B"/>
<path d="M128.303 44.2424H123.879V48.6667H128.303V44.2424Z" fill="#3C3C3B"/>
<path d="M132.727 44.2424H128.303V48.6667H132.727V44.2424Z" fill="#3C3C3B"/>
<path d="M17.6972 48.6665H13.2729V53.0907H17.6972V48.6665Z" fill="#3C3C3B"/>
<path d="M22.1215 48.6665H17.6973V53.0907H22.1215V48.6665Z" fill="#3C3C3B"/>
<path d="M35.394 48.6665H30.9697V53.0907H35.394V48.6665Z" fill="#3C3C3B"/>
<path d="M44.2426 48.6665H39.8184V53.0907H44.2426V48.6665Z" fill="#3C3C3B"/>
<path d="M53.0912 48.6665H48.667V53.0907H53.0912V48.6665Z" fill="#3C3C3B"/>
<path d="M57.5155 48.6665H53.0913V53.0907H57.5155V48.6665Z" fill="#3C3C3B"/>
<path d="M61.9394 48.6665H57.5151V53.0907H61.9394V48.6665Z" fill="#3C3C3B"/>
<path d="M70.788 48.6665H66.3638V53.0907H70.788V48.6665Z" fill="#3C3C3B"/>
<path d="M92.9091 48.6665H88.4849V53.0907H92.9091V48.6665Z" fill="#3C3C3B"/>
<path d="M101.758 48.6665H97.3335V53.0907H101.758V48.6665Z" fill="#3C3C3B"/>
<path d="M110.606 48.6665H106.182V53.0907H110.606V48.6665Z" fill="#3C3C3B"/>
<path d="M115.03 48.6665H110.606V53.0907H115.03V48.6665Z" fill="#3C3C3B"/>
<path d="M119.455 48.6665H115.03V53.0907H119.455V48.6665Z" fill="#3C3C3B"/>
<path d="M123.879 48.6665H119.455V53.0907H123.879V48.6665Z" fill="#3C3C3B"/>
<path d="M128.303 48.6665H123.879V53.0907H128.303V48.6665Z" fill="#3C3C3B"/>
<path d="M137.152 48.6665H132.728V53.0907H137.152V48.6665Z" fill="#3C3C3B"/>
<path d="M22.1215 53.0908H17.6973V57.5151H22.1215V53.0908Z" fill="#3C3C3B"/>
<path d="M26.5458 53.0908H22.1216V57.5151H26.5458V53.0908Z" fill="#3C3C3B"/>
<path d="M30.9697 53.0908H26.5454V57.5151H30.9697V53.0908Z" fill="#3C3C3B"/>
<path d="M39.8183 53.0908H35.394V57.5151H39.8183V53.0908Z" fill="#3C3C3B"/>
<path d="M44.2426 53.0908H39.8184V57.5151H44.2426V53.0908Z" fill="#3C3C3B"/>
<path d="M48.6669 53.0908H44.2427V57.5151H48.6669V53.0908Z" fill="#3C3C3B"/>
<path d="M53.0912 53.0908H48.667V57.5151H53.0912V53.0908Z" fill="#3C3C3B"/>
<path d="M57.5155 53.0908H53.0913V57.5151H57.5155V53.0908Z" fill="#3C3C3B"/>
<path d="M84.061 53.0908H79.6367V57.5151H84.061V53.0908Z" fill="#3C3C3B"/>
<path d="M97.3334 53.0908H92.9092V57.5151H97.3334V53.0908Z" fill="#3C3C3B"/>
<path d="M101.758 53.0908H97.3335V57.5151H101.758V53.0908Z" fill="#3C3C3B"/>
<path d="M110.606 53.0908H106.182V57.5151H110.606V53.0908Z" fill="#3C3C3B"/>
<path d="M128.303 53.0908H123.879V57.5151H128.303V53.0908Z" fill="#3C3C3B"/>
<path d="M132.727 53.0908H128.303V57.5151H132.727V53.0908Z" fill="#3C3C3B"/>
<path d="M26.5458 57.5151H22.1216V61.9394H26.5458V57.5151Z" fill="#3C3C3B"/>
<path d="M35.394 57.5151H30.9697V61.9394H35.394V57.5151Z" fill="#3C3C3B"/>
<path d="M44.2426 57.5151H39.8184V61.9394H44.2426V57.5151Z" fill="#3C3C3B"/>
<path d="M70.788 57.5151H66.3638V61.9394H70.788V57.5151Z" fill="#3C3C3B"/>
<path d="M79.6366 57.5151H75.2124V61.9394H79.6366V57.5151Z" fill="#3C3C3B"/>
<path d="M92.9091 57.5151H88.4849V61.9394H92.9091V57.5151Z" fill="#3C3C3B"/>
<path d="M101.758 57.5151H97.3335V61.9394H101.758V57.5151Z" fill="#3C3C3B"/>
<path d="M115.03 57.5151H110.606V61.9394H115.03V57.5151Z" fill="#3C3C3B"/>
<path d="M137.152 57.5151H132.728V61.9394H137.152V57.5151Z" fill="#3C3C3B"/>
<path d="M13.2729 61.9392H8.84863V66.3635H13.2729V61.9392Z" fill="#3C3C3B"/>
<path d="M17.6972 61.9392H13.2729V66.3635H17.6972V61.9392Z" fill="#3C3C3B"/>
<path d="M39.8183 61.9392H35.394V66.3635H39.8183V61.9392Z" fill="#3C3C3B"/>
<path d="M48.6669 61.9392H44.2427V66.3635H48.6669V61.9392Z" fill="#3C3C3B"/>
<path d="M61.9394 61.9392H57.5151V66.3635H61.9394V61.9392Z" fill="#3C3C3B"/>
<path d="M75.2123 61.9392H70.7881V66.3635H75.2123V61.9392Z" fill="#3C3C3B"/>
<path d="M88.4848 61.9392H84.0605V66.3635H88.4848V61.9392Z" fill="#3C3C3B"/>
<path d="M97.3334 61.9392H92.9092V66.3635H97.3334V61.9392Z" fill="#3C3C3B"/>
<path d="M106.182 61.9392H101.758V66.3635H106.182V61.9392Z" fill="#3C3C3B"/>
<path d="M115.03 61.9392H110.606V66.3635H115.03V61.9392Z" fill="#3C3C3B"/>
<path d="M128.303 61.9392H123.879V66.3635H128.303V61.9392Z" fill="#3C3C3B"/>
<path d="M132.727 61.9392H128.303V66.3635H132.727V61.9392Z" fill="#3C3C3B"/>
<path d="M137.152 61.9392H132.728V66.3635H137.152V61.9392Z" fill="#3C3C3B"/>
<path d="M13.2729 66.3635H8.84863V70.7878H13.2729V66.3635Z" fill="#3C3C3B"/>
<path d="M22.1215 66.3635H17.6973V70.7878H22.1215V66.3635Z" fill="#3C3C3B"/>
<path d="M26.5458 66.3635H22.1216V70.7878H26.5458V66.3635Z" fill="#3C3C3B"/>
<path d="M30.9697 66.3635H26.5454V70.7878H30.9697V66.3635Z" fill="#3C3C3B"/>
<path d="M35.394 66.3635H30.9697V70.7878H35.394V66.3635Z" fill="#3C3C3B"/>
<path d="M48.6669 66.3635H44.2427V70.7878H48.6669V66.3635Z" fill="#3C3C3B"/>
<path d="M53.0912 66.3635H48.667V70.7878H53.0912V66.3635Z" fill="#3C3C3B"/>
<path d="M57.5155 66.3635H53.0913V70.7878H57.5155V66.3635Z" fill="#3C3C3B"/>
<path d="M61.9394 66.3635H57.5151V70.7878H61.9394V66.3635Z" fill="#3C3C3B"/>
<path d="M70.788 66.3635H66.3638V70.7878H70.788V66.3635Z" fill="#3C3C3B"/>
<path d="M88.4848 66.3635H84.0605V70.7878H88.4848V66.3635Z" fill="#3C3C3B"/>
<path d="M97.3334 66.3635H92.9092V70.7878H97.3334V66.3635Z" fill="#3C3C3B"/>
<path d="M110.606 66.3635H106.182V70.7878H110.606V66.3635Z" fill="#3C3C3B"/>
<path d="M115.03 66.3635H110.606V70.7878H115.03V66.3635Z" fill="#3C3C3B"/>
<path d="M123.879 66.3635H119.455V70.7878H123.879V66.3635Z" fill="#3C3C3B"/>
<path d="M128.303 66.3635H123.879V70.7878H128.303V66.3635Z" fill="#3C3C3B"/>
<path d="M137.152 66.3635H132.728V70.7878H137.152V66.3635Z" fill="#3C3C3B"/>
<path d="M13.2729 70.7878H8.84863V75.2121H13.2729V70.7878Z" fill="#3C3C3B"/>
<path d="M17.6972 70.7878H13.2729V75.2121H17.6972V70.7878Z" fill="#3C3C3B"/>
<path d="M26.5458 70.7878H22.1216V75.2121H26.5458V70.7878Z" fill="#3C3C3B"/>
<path d="M30.9697 70.7878H26.5454V75.2121H30.9697V70.7878Z" fill="#3C3C3B"/>
<path d="M39.8183 70.7878H35.394V75.2121H39.8183V70.7878Z" fill="#3C3C3B"/>
<path d="M44.2426 70.7878H39.8184V75.2121H44.2426V70.7878Z" fill="#3C3C3B"/>
<path d="M57.5155 70.7878H53.0913V75.2121H57.5155V70.7878Z" fill="#3C3C3B"/>
<path d="M61.9394 70.7878H57.5151V75.2121H61.9394V70.7878Z" fill="#3C3C3B"/>
<path d="M66.3637 70.7878H61.9395V75.2121H66.3637V70.7878Z" fill="#3C3C3B"/>
<path d="M97.3334 70.7878H92.9092V75.2121H97.3334V70.7878Z" fill="#3C3C3B"/>
<path d="M110.606 70.7878H106.182V75.2121H110.606V70.7878Z" fill="#3C3C3B"/>
<path d="M115.03 70.7878H110.606V75.2121H115.03V70.7878Z" fill="#3C3C3B"/>
<path d="M119.455 70.7878H115.03V75.2121H119.455V70.7878Z" fill="#3C3C3B"/>
<path d="M123.879 70.7878H119.455V75.2121H123.879V70.7878Z" fill="#3C3C3B"/>
<path d="M132.727 70.7878H128.303V75.2121H132.727V70.7878Z" fill="#3C3C3B"/>
<path d="M137.152 70.7878H132.728V75.2121H137.152V70.7878Z" fill="#3C3C3B"/>
<path d="M13.2729 75.2119H8.84863V79.6362H13.2729V75.2119Z" fill="#3C3C3B"/>
<path d="M17.6972 75.2119H13.2729V79.6362H17.6972V75.2119Z" fill="#3C3C3B"/>
<path d="M22.1215 75.2119H17.6973V79.6362H22.1215V75.2119Z" fill="#3C3C3B"/>
<path d="M30.9697 75.2119H26.5454V79.6362H30.9697V75.2119Z" fill="#3C3C3B"/>
<path d="M44.2426 75.2119H39.8184V79.6362H44.2426V75.2119Z" fill="#3C3C3B"/>
<path d="M61.9394 75.2119H57.5151V79.6362H61.9394V75.2119Z" fill="#3C3C3B"/>
<path d="M66.3637 75.2119H61.9395V79.6362H66.3637V75.2119Z" fill="#3C3C3B"/>
<path d="M70.788 75.2119H66.3638V79.6362H70.788V75.2119Z" fill="#3C3C3B"/>
<path d="M75.2123 75.2119H70.7881V79.6362H75.2123V75.2119Z" fill="#3C3C3B"/>
<path d="M84.061 75.2119H79.6367V79.6362H84.061V75.2119Z" fill="#3C3C3B"/>
<path d="M97.3334 75.2119H92.9092V79.6362H97.3334V75.2119Z" fill="#3C3C3B"/>
<path d="M101.758 75.2119H97.3335V79.6362H101.758V75.2119Z" fill="#3C3C3B"/>
<path d="M106.182 75.2119H101.758V79.6362H106.182V75.2119Z" fill="#3C3C3B"/>
<path d="M110.606 75.2119H106.182V79.6362H110.606V75.2119Z" fill="#3C3C3B"/>
<path d="M119.455 75.2119H115.03V79.6362H119.455V75.2119Z" fill="#3C3C3B"/>
<path d="M123.879 75.2119H119.455V79.6362H123.879V75.2119Z" fill="#3C3C3B"/>
<path d="M137.152 75.2119H132.728V79.6362H137.152V75.2119Z" fill="#3C3C3B"/>
<path d="M26.5458 79.6362H22.1216V84.0605H26.5458V79.6362Z" fill="#3C3C3B"/>
<path d="M39.8183 79.6362H35.394V84.0605H39.8183V79.6362Z" fill="#3C3C3B"/>
<path d="M44.2426 79.6362H39.8184V84.0605H44.2426V79.6362Z" fill="#3C3C3B"/>
<path d="M48.6669 79.6362H44.2427V84.0605H48.6669V79.6362Z" fill="#3C3C3B"/>
<path d="M75.2123 79.6362H70.7881V84.0605H75.2123V79.6362Z" fill="#3C3C3B"/>
<path d="M79.6366 79.6362H75.2124V84.0605H79.6366V79.6362Z" fill="#3C3C3B"/>
<path d="M88.4848 79.6362H84.0605V84.0605H88.4848V79.6362Z" fill="#3C3C3B"/>
<path d="M115.03 79.6362H110.606V84.0605H115.03V79.6362Z" fill="#3C3C3B"/>
<path d="M119.455 79.6362H115.03V84.0605H119.455V79.6362Z" fill="#3C3C3B"/>
<path d="M123.879 79.6362H119.455V84.0605H123.879V79.6362Z" fill="#3C3C3B"/>
<path d="M132.727 79.6362H128.303V84.0605H132.727V79.6362Z" fill="#3C3C3B"/>
<path d="M137.152 79.6362H132.728V84.0605H137.152V79.6362Z" fill="#3C3C3B"/>
<path d="M17.6972 84.0605H13.2729V88.4848H17.6972V84.0605Z" fill="#3C3C3B"/>
<path d="M26.5458 84.0605H22.1216V88.4848H26.5458V84.0605Z" fill="#3C3C3B"/>
<path d="M48.6669 84.0605H44.2427V88.4848H48.6669V84.0605Z" fill="#3C3C3B"/>
<path d="M61.9394 84.0605H57.5151V88.4848H61.9394V84.0605Z" fill="#3C3C3B"/>
<path d="M75.2123 84.0605H70.7881V88.4848H75.2123V84.0605Z" fill="#3C3C3B"/>
<path d="M88.4848 84.0605H84.0605V88.4848H88.4848V84.0605Z" fill="#3C3C3B"/>
<path d="M92.9091 84.0605H88.4849V88.4848H92.9091V84.0605Z" fill="#3C3C3B"/>
<path d="M97.3334 84.0605H92.9092V88.4848H97.3334V84.0605Z" fill="#3C3C3B"/>
<path d="M110.606 84.0605H106.182V88.4848H110.606V84.0605Z" fill="#3C3C3B"/>
<path d="M115.03 84.0605H110.606V88.4848H115.03V84.0605Z" fill="#3C3C3B"/>
<path d="M128.303 84.0605H123.879V88.4848H128.303V84.0605Z" fill="#3C3C3B"/>
<path d="M13.2729 88.4849H8.84863V92.9091H13.2729V88.4849Z" fill="#3C3C3B"/>
<path d="M26.5458 88.4849H22.1216V92.9091H26.5458V88.4849Z" fill="#3C3C3B"/>
<path d="M30.9697 88.4849H26.5454V92.9091H30.9697V88.4849Z" fill="#3C3C3B"/>
<path d="M39.8183 88.4849H35.394V92.9091H39.8183V88.4849Z" fill="#3C3C3B"/>
<path d="M44.2426 88.4849H39.8184V92.9091H44.2426V88.4849Z" fill="#3C3C3B"/>
<path d="M48.6669 88.4849H44.2427V92.9091H48.6669V88.4849Z" fill="#3C3C3B"/>
<path d="M57.5155 88.4849H53.0913V92.9091H57.5155V88.4849Z" fill="#3C3C3B"/>
<path d="M66.3637 88.4849H61.9395V92.9091H66.3637V88.4849Z" fill="#3C3C3B"/>
<path d="M70.788 88.4849H66.3638V92.9091H70.788V88.4849Z" fill="#3C3C3B"/>
<path d="M88.4848 88.4849H84.0605V92.9091H88.4848V88.4849Z" fill="#3C3C3B"/>
<path d="M101.758 88.4849H97.3335V92.9091H101.758V88.4849Z" fill="#3C3C3B"/>
<path d="M110.606 88.4849H106.182V92.9091H110.606V88.4849Z" fill="#3C3C3B"/>
<path d="M119.455 88.4849H115.03V92.9091H119.455V88.4849Z" fill="#3C3C3B"/>
<path d="M26.5458 92.9089H22.1216V97.3332H26.5458V92.9089Z" fill="#3C3C3B"/>
<path d="M30.9697 92.9089H26.5454V97.3332H30.9697V92.9089Z" fill="#3C3C3B"/>
<path d="M35.394 92.9089H30.9697V97.3332H35.394V92.9089Z" fill="#3C3C3B"/>
<path d="M53.0912 92.9089H48.667V97.3332H53.0912V92.9089Z" fill="#3C3C3B"/>
<path d="M57.5155 92.9089H53.0913V97.3332H57.5155V92.9089Z" fill="#3C3C3B"/>
<path d="M70.788 92.9089H66.3638V97.3332H70.788V92.9089Z" fill="#3C3C3B"/>
<path d="M75.2123 92.9089H70.7881V97.3332H75.2123V92.9089Z" fill="#3C3C3B"/>
<path d="M79.6366 92.9089H75.2124V97.3332H79.6366V92.9089Z" fill="#3C3C3B"/>
<path d="M84.061 92.9089H79.6367V97.3332H84.061V92.9089Z" fill="#3C3C3B"/>
<path d="M88.4848 92.9089H84.0605V97.3332H88.4848V92.9089Z" fill="#3C3C3B"/>
<path d="M92.9091 92.9089H88.4849V97.3332H92.9091V92.9089Z" fill="#3C3C3B"/>
<path d="M101.758 92.9089H97.3335V97.3332H101.758V92.9089Z" fill="#3C3C3B"/>
<path d="M106.182 92.9089H101.758V97.3332H106.182V92.9089Z" fill="#3C3C3B"/>
<path d="M110.606 92.9089H106.182V97.3332H110.606V92.9089Z" fill="#3C3C3B"/>
<path d="M123.879 92.9089H119.455V97.3332H123.879V92.9089Z" fill="#3C3C3B"/>
<path d="M128.303 92.9089H123.879V97.3332H128.303V92.9089Z" fill="#3C3C3B"/>
<path d="M132.727 92.9089H128.303V97.3332H132.727V92.9089Z" fill="#3C3C3B"/>
<path d="M137.152 92.9089H132.728V97.3332H137.152V92.9089Z" fill="#3C3C3B"/>
<path d="M17.6972 97.3333H13.2729V101.757H17.6972V97.3333Z" fill="#3C3C3B"/>
<path d="M30.9697 97.3333H26.5454V101.757H30.9697V97.3333Z" fill="#3C3C3B"/>
<path d="M35.394 97.3333H30.9697V101.757H35.394V97.3333Z" fill="#3C3C3B"/>
<path d="M39.8183 97.3333H35.394V101.757H39.8183V97.3333Z" fill="#3C3C3B"/>
<path d="M48.6669 97.3333H44.2427V101.757H48.6669V97.3333Z" fill="#3C3C3B"/>
<path d="M66.3637 97.3333H61.9395V101.757H66.3637V97.3333Z" fill="#3C3C3B"/>
<path d="M70.788 97.3333H66.3638V101.757H70.788V97.3333Z" fill="#3C3C3B"/>
<path d="M75.2123 97.3333H70.7881V101.757H75.2123V97.3333Z" fill="#3C3C3B"/>
<path d="M79.6366 97.3333H75.2124V101.757H79.6366V97.3333Z" fill="#3C3C3B"/>
<path d="M88.4848 97.3333H84.0605V101.757H88.4848V97.3333Z" fill="#3C3C3B"/>
<path d="M92.9091 97.3333H88.4849V101.757H92.9091V97.3333Z" fill="#3C3C3B"/>
<path d="M97.3334 97.3333H92.9092V101.757H97.3334V97.3333Z" fill="#3C3C3B"/>
<path d="M101.758 97.3333H97.3335V101.757H101.758V97.3333Z" fill="#3C3C3B"/>
<path d="M106.182 97.3333H101.758V101.757H106.182V97.3333Z" fill="#3C3C3B"/>
<path d="M110.606 97.3333H106.182V101.757H110.606V97.3333Z" fill="#3C3C3B"/>
<path d="M115.03 97.3333H110.606V101.757H115.03V97.3333Z" fill="#3C3C3B"/>
<path d="M119.455 97.3333H115.03V101.757H119.455V97.3333Z" fill="#3C3C3B"/>
<path d="M123.879 97.3333H119.455V101.757H123.879V97.3333Z" fill="#3C3C3B"/>
<path d="M128.303 97.3333H123.879V101.757H128.303V97.3333Z" fill="#3C3C3B"/>
<path d="M132.727 97.3333H128.303V101.757H132.727V97.3333Z" fill="#3C3C3B"/>
<path d="M137.152 97.3333H132.728V101.757H137.152V97.3333Z" fill="#3C3C3B"/>
<path d="M48.6669 101.757H44.2427V106.182H48.6669V101.757Z" fill="#3C3C3B"/>
<path d="M57.5155 101.757H53.0913V106.182H57.5155V101.757Z" fill="#3C3C3B"/>
<path d="M66.3637 101.757H61.9395V106.182H66.3637V101.757Z" fill="#3C3C3B"/>
<path d="M70.788 101.757H66.3638V106.182H70.788V101.757Z" fill="#3C3C3B"/>
<path d="M84.061 101.757H79.6367V106.182H84.061V101.757Z" fill="#3C3C3B"/>
<path d="M88.4848 101.757H84.0605V106.182H88.4848V101.757Z" fill="#3C3C3B"/>
<path d="M92.9091 101.757H88.4849V106.182H92.9091V101.757Z" fill="#3C3C3B"/>
<path d="M97.3334 101.757H92.9092V106.182H97.3334V101.757Z" fill="#3C3C3B"/>
<path d="M101.758 101.757H97.3335V106.182H101.758V101.757Z" fill="#3C3C3B"/>
<path d="M119.455 101.757H115.03V106.182H119.455V101.757Z" fill="#3C3C3B"/>
<path d="M123.879 101.757H119.455V106.182H123.879V101.757Z" fill="#3C3C3B"/>
<path d="M132.727 101.757H128.303V106.182H132.727V101.757Z" fill="#3C3C3B"/>
<path d="M137.152 101.757H132.728V106.182H137.152V101.757Z" fill="#3C3C3B"/>
<path d="M53.0912 106.182H48.667V110.606H53.0912V106.182Z" fill="#3C3C3B"/>
<path d="M75.2123 106.182H70.7881V110.606H75.2123V106.182Z" fill="#3C3C3B"/>
<path d="M84.061 106.182H79.6367V110.606H84.061V106.182Z" fill="#3C3C3B"/>
<path d="M92.9091 106.182H88.4849V110.606H92.9091V106.182Z" fill="#3C3C3B"/>
<path d="M97.3334 106.182H92.9092V110.606H97.3334V106.182Z" fill="#3C3C3B"/>
<path d="M101.758 106.182H97.3335V110.606H101.758V106.182Z" fill="#3C3C3B"/>
<path d="M110.606 106.182H106.182V110.606H110.606V106.182Z" fill="#3C3C3B"/>
<path d="M119.455 106.182H115.03V110.606H119.455V106.182Z" fill="#3C3C3B"/>
<path d="M128.303 106.182H123.879V110.606H128.303V106.182Z" fill="#3C3C3B"/>
<path d="M132.727 106.182H128.303V110.606H132.727V106.182Z" fill="#3C3C3B"/>
<path d="M48.6669 110.606H44.2427V115.03H48.6669V110.606Z" fill="#3C3C3B"/>
<path d="M53.0912 110.606H48.667V115.03H53.0912V110.606Z" fill="#3C3C3B"/>
<path d="M70.788 110.606H66.3638V115.03H70.788V110.606Z" fill="#3C3C3B"/>
<path d="M75.2123 110.606H70.7881V115.03H75.2123V110.606Z" fill="#3C3C3B"/>
<path d="M79.6366 110.606H75.2124V115.03H79.6366V110.606Z" fill="#3C3C3B"/>
<path d="M88.4848 110.606H84.0605V115.03H88.4848V110.606Z" fill="#3C3C3B"/>
<path d="M101.758 110.606H97.3335V115.03H101.758V110.606Z" fill="#3C3C3B"/>
<path d="M119.455 110.606H115.03V115.03H119.455V110.606Z" fill="#3C3C3B"/>
<path d="M57.5155 115.03H53.0913V119.455H57.5155V115.03Z" fill="#3C3C3B"/>
<path d="M70.788 115.03H66.3638V119.455H70.788V115.03Z" fill="#3C3C3B"/>
<path d="M84.061 115.03H79.6367V119.455H84.061V115.03Z" fill="#3C3C3B"/>
<path d="M101.758 115.03H97.3335V119.455H101.758V115.03Z" fill="#3C3C3B"/>
<path d="M106.182 115.03H101.758V119.455H106.182V115.03Z" fill="#3C3C3B"/>
<path d="M110.606 115.03H106.182V119.455H110.606V115.03Z" fill="#3C3C3B"/>
<path d="M115.03 115.03H110.606V119.455H115.03V115.03Z" fill="#3C3C3B"/>
<path d="M119.455 115.03H115.03V119.455H119.455V115.03Z" fill="#3C3C3B"/>
<path d="M123.879 115.03H119.455V119.455H123.879V115.03Z" fill="#3C3C3B"/>
<path d="M128.303 115.03H123.879V119.455H128.303V115.03Z" fill="#3C3C3B"/>
<path d="M132.727 115.03H128.303V119.455H132.727V115.03Z" fill="#3C3C3B"/>
<path d="M137.152 115.03H132.728V119.455H137.152V115.03Z" fill="#3C3C3B"/>
<path d="M48.6669 119.454H44.2427V123.879H48.6669V119.454Z" fill="#3C3C3B"/>
<path d="M57.5155 119.454H53.0913V123.879H57.5155V119.454Z" fill="#3C3C3B"/>
<path d="M66.3637 119.454H61.9395V123.879H66.3637V119.454Z" fill="#3C3C3B"/>
<path d="M70.788 119.454H66.3638V123.879H70.788V119.454Z" fill="#3C3C3B"/>
<path d="M97.3334 119.454H92.9092V123.879H97.3334V119.454Z" fill="#3C3C3B"/>
<path d="M119.455 119.454H115.03V123.879H119.455V119.454Z" fill="#3C3C3B"/>
<path d="M132.727 119.454H128.303V123.879H132.727V119.454Z" fill="#3C3C3B"/>
<path d="M48.6669 123.879H44.2427V128.303H48.6669V123.879Z" fill="#3C3C3B"/>
<path d="M57.5155 123.879H53.0913V128.303H57.5155V123.879Z" fill="#3C3C3B"/>
<path d="M66.3637 123.879H61.9395V128.303H66.3637V123.879Z" fill="#3C3C3B"/>
<path d="M75.2123 123.879H70.7881V128.303H75.2123V123.879Z" fill="#3C3C3B"/>
<path d="M92.9091 123.879H88.4849V128.303H92.9091V123.879Z" fill="#3C3C3B"/>
<path d="M101.758 123.879H97.3335V128.303H101.758V123.879Z" fill="#3C3C3B"/>
<path d="M115.03 123.879H110.606V128.303H115.03V123.879Z" fill="#3C3C3B"/>
<path d="M137.152 123.879H132.728V128.303H137.152V123.879Z" fill="#3C3C3B"/>
<path d="M48.6669 128.303H44.2427V132.727H48.6669V128.303Z" fill="#3C3C3B"/>
<path d="M53.0912 128.303H48.667V132.727H53.0912V128.303Z" fill="#3C3C3B"/>
<path d="M57.5155 128.303H53.0913V132.727H57.5155V128.303Z" fill="#3C3C3B"/>
<path d="M66.3637 128.303H61.9395V132.727H66.3637V128.303Z" fill="#3C3C3B"/>
<path d="M79.6366 128.303H75.2124V132.727H79.6366V128.303Z" fill="#3C3C3B"/>
<path d="M110.606 128.303H106.182V132.727H110.606V128.303Z" fill="#3C3C3B"/>
<path d="M119.455 128.303H115.03V132.727H119.455V128.303Z" fill="#3C3C3B"/>
<path d="M123.879 128.303H119.455V132.727H123.879V128.303Z" fill="#3C3C3B"/>
<path d="M132.727 128.303H128.303V132.727H132.727V128.303Z" fill="#3C3C3B"/>
<path d="M53.0912 132.727H48.667V137.152H53.0912V132.727Z" fill="#3C3C3B"/>
<path d="M57.5155 132.727H53.0913V137.152H57.5155V132.727Z" fill="#3C3C3B"/>
<path d="M61.9394 132.727H57.5151V137.152H61.9394V132.727Z" fill="#3C3C3B"/>
<path d="M97.3334 132.727H92.9092V137.152H97.3334V132.727Z" fill="#3C3C3B"/>
<path d="M110.606 132.727H106.182V137.152H110.606V132.727Z" fill="#3C3C3B"/>
<path d="M115.03 132.727H110.606V137.152H115.03V132.727Z" fill="#3C3C3B"/>
<path d="M132.727 132.727H128.303V137.152H132.727V132.727Z" fill="#3C3C3B"/>
</g>
<defs>
<clipPath id="clip0_234_2723">
<rect width="146" height="146" fill="white"/>
</clipPath>
</defs>
</svg>
