<svg width="24" height="24" viewBox="0 0 24 24" fill="none" xmlns="http://www.w3.org/2000/svg">
<path fill-rule="evenodd" clip-rule="evenodd" d="M23.435 6C23.613 5.436 23.435 5.026 22.6475 5.026H20.029C19.3685 5.026 19.0635 5.385 18.8855 5.769C18.8855 5.769 17.5385 9.04901 15.6575 11.1755C15.0475 11.7905 14.768 11.9955 14.4375 11.9955C14.2595 11.9955 14.0305 11.7905 14.0305 11.227V5.9735C14.0305 5.3075 13.8275 5 13.268 5H9.15001C8.74301 5 8.48901 5.3075 8.48901 5.615C8.48901 6.2555 9.42951 6.4095 9.53101 8.203V12.1C9.53101 12.9455 9.38101 13.1 9.04801 13.1C8.15851 13.1 5.99801 9.79451 4.70201 6.028C4.45001 5.282 4.19401 5 3.533 5H0.889501C0.127 5 0 5.3585 0 5.743C0 6.435 0.889501 9.91951 4.14301 14.5315C6.30351 17.6815 9.37901 19.3745 12.1495 19.3745C13.8275 19.3745 14.0305 18.99 14.0305 18.3495V15.9665C14.0305 15.198 14.183 15.07 14.717 15.07C15.098 15.07 15.7845 15.2745 17.335 16.7865C19.114 18.58 19.419 19.4 20.4105 19.4H23.0285C23.791 19.4 24.147 19.0155 23.9435 18.2725C23.715 17.5295 22.8505 16.4535 21.732 15.1725C21.122 14.4555 20.207 13.661 19.9275 13.2765C19.5465 12.764 19.648 12.559 19.9275 12.098C19.902 12.098 23.105 7.537 23.435 5.998" fill="white"/>
</svg>
